<mxfile host="app.diagrams.net" modified="2024-05-27T08:28:42.354Z" agent="Mozilla/5.0 (X11; Linux x86_64; rv:126.0) Gecko/20100101 Firefox/126.0" etag="nnNIrz6qp-HWpyLiVD-b" version="24.4.8" type="github">
  <diagram name="Page-1" id="SET9EJyLUaGjpd4J9XoE">
    <mxGraphModel dx="2899" dy="1084" grid="1" gridSize="10" guides="1" tooltips="1" connect="1" arrows="1" fold="1" page="1" pageScale="1" pageWidth="850" pageHeight="1100" math="0" shadow="0">
      <root>
        <mxCell id="0" />
        <mxCell id="1" parent="0" />
        <mxCell id="Zaewg4Ofl3aSR8xDvAoy-2" value="" style="shape=image;verticalLabelPosition=bottom;labelBackgroundColor=default;verticalAlign=top;aspect=fixed;imageAspect=0;image=data:image/png,iVBORw0KGgoAAAANSUhEUgAAAzIAAAJGCAYAAACA8bBOAAAABHNCSVQICAgIfAhkiAAAABl0RVh0U29mdHdhcmUAZ25vbWUtc2NyZWVuc2hvdO8Dvz4AAAAtdEVYdENyZWF0aW9uIFRpbWUATW9uIDI3IE1heSAyMDI0IDEwOjQ3OjU1IEFNIE1TSymQy7IAACAASURBVHic7d07dttMnjfgQh87V+DkZTqT9ArGiRbBlWoRSrSD7mBiOXkDT/IlDvAFakogULgSl/qTz3OOj8VLoQAQBPFDVQFVXdd1AgAACOQfR88AAADAXIIMAAAQjiADbK6qquzflGXK5+TzO8bW3yGfaz/7LyjXt6NnAChL+4d67WF0zelVVbX69Hk87e1o6214bSXM/1Z1TPmON5e39M/q1vm7LGvpywlRCDLAp9wBlbBByXLbbPTtta7ruzjgndJ6cY+f35DmZwvcTpABUkr5A4j2j+7QQcfUs8iXMpf3D52Nzc3TUD190xp6PnfQOGU6fcs49p7ctNeajzXmb6q+5eib9q2f2y3zOnUe2tv7GvM/FkpuPXAf+07mlmloGxwq117WvmXqm8atpq7n3Otznm+/1n5+ynrKTePy2qXMPQc22IsgA4ya8qM7JYS03z8nGA3VNVTf2BnfuY9vWQ9D62St+Vj7cxqb1zlBdMnns+Rgr2+Zxuavb7mGun7N/dz21l6mqd+xpZ9x3/tuNWc9D30+U8sPBZK+6UzdZoD1GOwPFGvLfvtb1zHXlPko5WCoHTRKma+UUuegfUnZLebnKLlW1iXlSrfG/C7ZjqOtJ7g3WmSAVex1MDvWVWdO+T59r0+pe6v10K47Nx9Hzt/YtIfmben6Hip3eX1qC8Qtlk736NaaJdZeh3OC8JbbbmmBHJhGkAFGLTmLu/Ts5pxubEu7RU2Zj1vq3qJLydC4mFxXrL3nb8q0x+Z5aHq55Rk7+My9vsWyRwsjt1p7HU6d3pbrWYiBmHQtA1JK+YO+W84032LrM9V7HXhuGRLWsMbnOzQGoWSlz18Ea+8fjm6herRACvdAiwzwaewM9tgZ8FzXp6n1TT2ImNINqTm9vuenzFO7zNwuMLm6p87L0HuHDgRvmb+phsr1TXvq53Z5bqjMkKHtd2j+hgy9d+w7MzSfU7r/jR3cH9El6tbtJzety/T6LF3PS/YLayyXrmqwj6p2CgLIuGUcyq312i0x1RHbi22UuYauigYsp2sZkLX1AGlYgzPfRGJbhXVpkQGKcFQLEIxZ0qWJx2abgX0IMgAAQDi6lgEAAOEIMgAAQDiCDAAAEM5gkMldXaOqqs9/AAAAR+i9IWZfiGnflM21AgAAgL3pWgYAAISTbZG5tLQs6T5WVVV6eX+ZXe5H+jG7TEop/Z3+XlROfepTn/rUpz71qU996lNf3Po6LTK6iwEAAKXTtQwAAAjnqmvZpStZs0vZ5W+tNAAAQCmugkw7rOhmBgAAlKj38ss57QsACDkAAMARBoNMLqgILwAAwNEM9gcAAMIRZAAAgHAEGQAAIBxBBgAACEeQAQAAwhFkAACAcGbdRwbuxfl0nvzel/eXz7+fT8+Ty72+v6pPfepTn/rUpz71depjHYIMD+v37/H3PD0pp5xyyimnnHJ7l2uGhYvn03P2+aZcWDifzqMhYu/6WIeuZQAAQDhaZAAAYEdLu7JxTZABAIAdLe3KxjVdywAAgHC0yAAAUJS+rle557ViPC5BBgCA4iy9ShqPQ5AhNIPlAAAekyBDeM7YAAA8nk6Qqarq6nFd172vt18DAADYQ7ZFphlQqqr6fNz8O/cYAABgD53LLwsmAABA6QbHyLS7mV2eq+taawyr+ut0nvzeX+8vn3+/pZT+PWH8y1tK6U/r8dRyvxaWU5/61Kc+9alPffvWd+45nsg9/9I4nlh6uedS6suZUl9OpPqyQaZvHMwlwOQCDtziZ5o+aP+l8XhOueY1y9SnPvWpT33qU9/91ZdmlGtTrluuGU4uzqdz9vmm3JVin0/Po1eQnVufMTIAAEA4nTEyAAAApRNkAACAcNxHBgAACKcTZIbCieACAACUQNcyAAAgnMH7yMBc32dcN/zPyCX4AACgjyDDqm657jsAAEylaxkAABCOIAMAAIQjyAAAAOEYI7OzpYPh/zqdJ5f79f5yWH23eHpSTjnllFNOuccrx3reUkr/nvA5vKWUfi0s9+eB6ssdD76llFLm+bHjz49y3efHjj+H6hNkdrZ0MPyccs1YsXd9S71kwtD5dM4+3/SaufLZ8+k5+7z61Kc+9alPfaXVx7qiHC+pb536dC0DAADC0SIDAHAgXdJgGUEGAOAgS7uyAbqWAQAAAWmRgQmeT98HXn1Lz6evR6/vf/rfCgU7n/5qPHpL51PvWwdcfx+u/dX3wmB9vlMA5AgyPLSpB25DB1Ltq9Jch57rA7eX91+J+zcn+Da9vG8yO1embp9DXVt+pB8D0++/StPf6e/eckP1PZ+GA9DawWnYsZ8fAF8EGe7eGgduaeDAra0ZetoHbqWe8b73+pae0T+PHECvEXyvX9t+fQ5tn6Vauj6XBqelQW2Pz++aoAY8NkGGu/EVWMo9cCv1jPe917f0jP5QC9pawXeN+pauT9a19+dXclDT+gzsoRNkqqq6elzXdadQ8z2512Frua47l8DiwI225Wf0gYs5QW2oNXNqC+kWLaLAfcm2yDTDSVVVn48vAUZ4YW/tHzQ/VADlaoaedgvQ9Ymo9VtEl7fADhQrlPvP8Og6QWYspAgx7OfrjFv3B21Z1x0AjtU8EbVFi+jeY9SOOrGWWw49Eng0g2Nk2t3M2s8JNWzlowXmpxuCAbCLR2oB0pLDvcgGmaGw0tftDNZw6UL28v5r4RV3AGA/0VqAcoFs+OIlUK5ZY2RgS+fTX650A8BD2KMFyHhS7p3LL1MEIQYAxh15g2Zd0iiNIMOhml3JAID1LLlBc9/vsYsLUKJZ95Gp69pgf1bzfPouwADAAfpu0Ox2B0Ti8ssc5C29vv9xw0EAKEj7BGNuTI5wQyl0LWN3T09vKaWfKSXN0QBQslxo+Rp74+ICHEuQYTcfASal379/GjAIAEFdAsu0iwu8paenj99+WJsgwy6ent7sxADgjuUuLnA+ndPv318nM4ecT1p1mEeQYVPNVhgA4DGNHQc8PX3crPNrTM7bYO8NxxWkJMiwEQEGAJir2W3t9+/+9zVbeJ5PKb28bz1nlEiQYWX6wgIA27ocZzw9fdzjJteS41jk/gkyrOJrgN/XjgUAYOkxwZxyl8tGn0/nRvm+cTkCzr0QZLjRW2twnjv/AgAfLjfabGregLNP7rhhyvHE9XS/wk3z+fPp7T//N0vqURKRIMMiX2c5fv5n5/DjyNkBAJikedPPH/85frmMyRm6upqQUx5Bhlnag/h1IQMA7sVQWLkcA33cBNR9ckogyDCofWbCFxUAeESXG3q/vr9Ovk+O46ZtCTI4wwAAcIO+46VmwHHDz/UJMoU7T7wx1HWZ5qPxckNnGAAAWKbZFb/vhp9OGi8nyBSgrzny4wZPX1fcmBIsLl+U9uA1AACOlbvh59AFBj7e64affQSZQrTT+FcLCQAA92r4AgP9N/ycM517Jcgc7Onp7SE3PAAAppnSQ6fbsvMr+7570gkyVVVdPa7rOluwqqre1wAAgP00T4w/PX3d+POeZVtkmgElF1jaYYdltMYAALCFl/dfjTHT113S7uX4sxNktLIAAMA9+XnVJS13gYGI4WZwjEyu5eXSQrNVq8zz6Xnye1/fXz//Pp/Ok8u9vL8cVt8tpl5++ehyAADRPNJxVi60lHZfwWbY6qs/G2SaIWWsm9nammHh4vn0nH2+KRcWzqfzaIjYu76Lud3Koi0fAEAUUY4/tzR0X8GhS0SvEXJy902cMt1FY2QAAIDHMHyJ6I+Qk7she1+5ZjBact/Ei8mXX7600jRbay5/CzrzGOQPAMASpXX9v7Tk5G7I3teSczkOvvW+iZODTO7KZQIMAADsI1rX/61P3C++jwwAAMBRFl9+WcBZSrcyAAC41T+OngEAAIC5BJkdPZ++p5S0xgAAwK0EGQAAIBxBBgAACEeQ2cnz6Xt6ff9z9GwAAMBdEGQAAIBwJt8Qc67z6Tz5vc2b+DyfnrPvyT3/+v46Wl/u+WZ93zPTfUsppczzfxr1/ZWZ7ke57vM/09tVa0xpd2QtwdLPb+/tRX3qU5/6Hr0+IKalx58ll9ssyKSU0u/f4+/Jzeye5X7OKNfcjc8p15T7MXg+PT/8j8TSO9IuXW/qU5/61Ke+x/7dgUey9Pgzt385n86j+5296tO1DAAACGfTFhlSSuktvbz/Sin9OHpGAOBmS7uyAaxNkAEAJhNOgFLoWrahp6e39DGaBgAAWJMgAwAAhCPIAAAA4Rgjs5Gnp7f0+/fPh7tnjPsSALAmFxcA+ggyrEo4AWBNwgnQpxNkqqq6elzX9aTX+HJpjQEAALaRbZFph5fm46HXAABydD0G1tYJMkPBRGgBAJYQToC1DY6RaXclm+MtpfTvCQPd31JKvxaW+7NCfSmlxQPy8+U+7h0TfZC/wZUARLa0BWjp758WJ9hfNsg0A0xfK8xYt7JfmYPb8+mv9PLejhHX/mS+3M+n59Evfb6+8+hBdm66U+rLTfeyk7uHA/t7WAYAHtfSsLD09084gf1l7yNT1/Xnv1yrzPKxMT/T+fTXgnJRvI0GNQAA4Hazb4h56wD/l/dfdxlm7nGZAACgVLPuI7PWVcouYSZy60U7uHws0zmlpEsWAABsbdZ9ZKa8PlXEMPN8+p5S+ggwkeYbAADuzaGXXy49zHwEly+v73/S3+nvg+YGAAC4mNW1bAuXMPP6/mf8zRv7Ci5v6fmUipgnAACg6/Agk9JHmHn+z5iTvcJDu7WlWfeUyy8DANzKfdtguSKCTErNEPF9kzDTHpyvtQUAOJpwAssVE2QuXt//rBJmPoLLWzqfPh53x+H8uGn6AADAcYoLMiktCzN9l0N2pgMAAO5PkUEmpWlhxuWQAQDgMRUbZFL6CjMX93A55OfT8+TnmxccWDoYcGl9AEC5/L5D4UEmpUuYuZ/LIS/dmSztImfnBQD3x+87pPSPo2dgmp93EWIAAIB1BAkyAAAAXwQZAAAgHEEGAAAIR5ABAADCEWQAAIBwir/8MgAA61h6XzookSADAPAghBPuSSfIVFV19biu697X268BAADsIdsi0wwoVVV9Pm7+nXsMAACwh85gf8EEAAAo3eAYmXY3M74YLAcAAMfJBhnjYMYJJwAAcJxZY2QAAABK4IaYAABAOIIMAAAQzqz7yNR1bfwMAABwuE6QGQsnwgsAAHA0XcsAAIBwBu8jAwAAz6fnyc+/vr9uPTuQUhJkAAAYIZxQIl3LAACAcAQZAAAgHEEGAAAIZ7MxMufTefLzL+8vn38vHUy2d30AAGzD8RlTbBZkmmFhjqUb4971AQCwDcdnTKFrGQAAEI4gAwAAhCPIAAAA4QgyAABAOIIMAAAQjiADAACEs9nllwEAeGxL7/MHUwgyAABsQjhhS50gU1XV1eO6rntfb78GAACwh2yLTDOgVFX1+bj5d+4xAADAHjqD/QUTAACgdLPHyFxaYYZaY/7n/xbMyfcFZVJK//VnWTn1qU996lOf+tSnPvU9Rn29x6Yj9f3X/1NfyfUNXn65HVaaXcwAAACO0tsik2txMUYGAAAoQbZFRkABAABK1gkyQgwAAFC6bNeyoXvJuI8MAABwtE6QGQonggsAAFCCwauWAQAAlEiQAQAAwhFkAACAcAQZAAAgHEEGAAAIR5ABAADCyd5HBgAAojn98zz5+fd/vWw9O2xMkAEA4C4IJ49F1zIAACAcQQYAAAhHkAEAAMIRZAAAgHAEGQAAIBxBBgAACEeQAQAAwhFkAACAcDo3xKyq6upxXdedQs335F4HAADYUifIpHQdTqqq+nx8CTDCCwAAcKRO17KxkCLEAAAAR8u2yAzRrQwAgHty+u/nyc+//+/r1+v/POfLZZ5//9fLwrmjz2CQaXYru+jrdgYAABE1w8mscsLJoXqvWiakAAAApcq2yAgxAACwDV3Z1pG9/LIQAwAA29CVbR29LTJNl2BT17XB/gAAwOE6QcbllwEAgL3N7To3+/LLAAAAa5vbda73qmUAAAClEmQAAIBwBBkAACAcQQYAAAhHkAEAAMIRZAAAgHAEGQAAIBxBBgAACEeQAQAAwhFkAACAcAQZAAAgHEEGAAAIR5ABAADC+Xb0DAAAANs5/ffz5Off//d169lZjSADAAB3LFI4maMTZKqqunpc13W2YFVVva8BAABsKdsi0wwoucDSDjsAAAB76gz218oCAACUbvYYmUsLjVYZAAC4X6d/nic///6vl6/Xd7q4wGCQaXcrMy4GAAAeQzOczCq308UFeu8jI7QAAAClyrbIDA3wb3Ypu/wt8AAAAHvKXn45F0xywUaAAQAAjtDbItMksAAAACXpBJmpoUW4AQAAjtI72B8AAKBUggwAABCOIAMAAIQjyAAAAOEIMgAAQDiCDAAAEI4gAwAAhCPIAAAA4QgyAABAOIIMAAAQjiADAACEI8gAAADhCDIAAEA4ggwAABCOIAMAAIQjyAAAAOF8az9RVdXV47quJ70GAACwl06QSakbXpqPh14DAADYQ6dr2VAwEVoAAIASGCMDAACEMxhkhrqO6VYGAAAcpTfICDEAAECpskFGiAEAAErWCTJCDAAAULrs5ZfdSwYAAChZJ8i4/DIAAFA6l18GAADCEWQAAIBwBBkAACAcQQYAAAhHkAEAAMIRZAAAgHAEGQAAIBxBBgAACEeQAQAAwhFkAACAcAQZAAAgHEEGAAAIR5ABAADCEWQAAIBwBBkAACAcQQYAAAjnW/uJqqquHtd13ft6+zUAAIA9dIJMStcBpaqqz8fNv3OPAQAA9tDpWiaYAAAApcu2yNzs3wvK/FhY198Ly6lPfepTn/rUpz71qU996gtb3+Bgf13HAACAEvUGGSEGAAAoVTbICDEAAEDJOkFGiAEAAEqXHezfdy+Zuq7dRwYAADhcJ8iMhRPhBQAAONrgVcsAAABKJMgAAADhCDIAAEA4ggwAABCOIAMAAIQjyAAAAOEIMgAAQDiCDAAAEI4gAwAAhCPIAAAA4QgyAABAOIIMAAAQjiADAACEI8gAAADhCDIAAEA4ggwAABBOb5Cpqqr3+cs/AACAI3zLPTkUYuq67n0MAACwh06LjHACAACUrhNkxkLMpbVG4AEAAI4ya7D/JbgYHwMAABwpO0amjzEyAABACVx+GQAACEeQAQAAwpnVtSyl6/ExupUBAABH6A0yuZAiuAAAACXQtQwAAAhHkAEAAMIRZAAAgHAEGQAAIBxBBgAACEeQAQAAwhFkAACAcAQZAAAgHEEGAAAIR5ABAADCEWQAAIBwBBkAACAcQQYAAAhHkAEAAMIRZAAAgHAEGQAAIJzeIFNVVW+hqqo+/wEAAOztW+7JvoByeb6u6+3mCAAAYESnRaaqqsGgIsQAAABH67TIjAWVZmuNUAMAABwh27VsSDO8jLXeAAAAbMFVywAAgHAEGQAAIBxBBgAACGfWGJm6rg32BwAADtcbZPpCivACAAAcTdcyAAAgHEEGAAAIR5ABAADCEWQAAIBwBBkAACAcQQYAAAhHkAEAAMIRZAAAgHAEGQAAIBxBBgAACEeQAQAAwhFkAACAcAQZAAAgHEEGAAAIR5ABAADCEWQAAIBweoNMVVWDBcdeBwAA2Eo2yAgxAABAyTpBpqqqVNf1EfMCAAAwSSfIjIUYQQcAADjarMH+QgwAAFACVy0DAADC+Tb1jZcB/s2B/pe/tdIAAAB7mhxk2mFFNzMAAOAoupYBAADh9AaZsdYWrTEAAMBRtMgAAADhCDIAAEA4ggwAABCOIAMAAIQjyAAAAOEIMgAAQDiCDAAAEI4gAwAAhCPIAAAA4QgyAABAOIIMAAAQjiADAACEI8gAAADhCDIAAEA4ggwAABCOIAMAAITzre+FqqpSXded55rarwMAAOwhG2TagaWpGV5yYQcAAGBrna5lQ+FEaAEAAErQCTLCCgAAULrFg/11KwMAAI6yKMgIMQAAwJFmBxkhBgAAONqsICPEAAAAJei9j0wf95IBAACO1htkcgFFaAEAAEqw+KplAAAARxFkAACAcAQZAAAgHEEGAAAIR5ABAADCEWQAAIBwBBkAACAcQQYAAAhHkAEAAMIRZAAAgHAEGQAAIBxBBgAACEeQAQAAwhFkAACAcAQZAAAgHEEGAAAIpzfIVFXV+/zlHwAAwBG+5Z4cCjF1Xfc+BgAA2EOnRUY4AQAAStcJMkIMAABQOoP9AQCAcAQZAAAgHEEGAAAIR5ABAADCyV5+uU9d11eXZnZhAAAA4Ai9QaYvpAgvAADA0XQtAwAAwhFkAACAcAQZAAAgHEEGAAAIR5ABAADCEWQAAIBwBBkAACAcQQYAAAhHkAEAAMIRZAAAgHAEGQAAIBxBBgAACEeQAQAAwhFkAACAcAQZAAAgHEEGAAAI51vuyaqqPv+u63q3mQEAAJiiE2SqqroKL+3HAAAAR9O1DAAACCcbZC5dy7TGAAAAJeoEmUtwaY6TAQAAKIkxMgAAQDjGyAAAAOEIMgAAQDjuIwMAAITTCTKCCwAAUDpdywAAgHAEGQAAIBxBBgAACEeQAQAAwhFkAACAcAQZAAAgHEEGAAAIR5ABAADCEWQAAIBwBBkAACAcQQYAAAhHkAEAAMIRZAAAgHAEGQAAIBxBBgAACEeQAQAAwvnW90JVVZ9/13W9y8wAAABM0QkylwAjvAAAAKXKdi0TYgAAgJJlu5bpVgYAAJQsG2Sa4aWqKmEGAAAoiquWAQAA4QgyAABAOIIMAAAQTmeMTF3XBvsDAABFGx3sDwAAUBpdywAAgHAEGQAAIBxBBgAACEeQAQAAwhFkAACAcAQZAAAgHEEGAAAIR5ABAADCEWQAAIBwBBkAACAcQQYAAAhHkAEAAMIRZAAAgHAEGQAAIBxBBgAACEeQAQAAwhkMMlVV7TUfAAAAk/UGGSEGAAAola5lAABAONkgU1VVqut673kBAACYpBNkhBgAAKB0upYBAADhfGs+uAzwbw70v/ytlQYAACjFVZBphxXdzAAAgBLpWgYAAIQzGGS0xgAAACXSIgMAAIQjyAAAAOEIMgAAQDiCDAAAEI4gAwAAhCPIAAAA4QgyAABAOIIMAAAQjiADAACEI8gAAADhCDIAAEA4ggwAABCOIAMAAIQjyAAAAOEIMgAAQDiCDAAAEM639hNVVV09rut6t5kBAACYohNkUroOL1VVCTMAAEBROl3LhBYAAKB0xsgAAADhDAYZ3coAAIAS9QYZIQYAAChVNsgIMQAAQMk6QUaIAQAASpe9/LJ7yQAAACXrBBmhBQAAKJ3LLwMAAOEIMgAAQDiCDAAAEI4gAwAAhCPIAAAA4QgyAABAOIIMAAAQjiADAACEI8gAAADhCDIAAEA4ggwAABCOIAMAAIQjyAAAAOEIMgAAQDiCDAAAEI4gAwAAhPMt92RVVZ9/13W928wAAABM0QkyVVVdhZf2YwAAgKPpWgYAAIRT1a3mlltbZJrd0gAAALaQHSNzC93QAACArelaBgAAhCPIAAAA4QgyAABAOJ0xMnVdu48MAABQtOxg/63Cy61XQJtadmm59jSW1je3zrnB8Zb6lobUW8Ntbn0uWY6+z2WN+Ruaj6nTn7rtrXF/ptwVBtumbk9Ll3fKtHPTuWWb7/v81/jcm9Ofsz7H3rvG+hyaxpzpT3nvlvcPG5r2Wt/vJXVMfX1J3WvtX26pY6jsHEv25VssX9+0LN/8utv1b7F9Tp3OWvvyOetuzd/3rfYvQ3Xvcfyy57HNXKtftazP0ssyL70U9N6XkL5lw5xbdsoOsK++Jetly0tyrzGdtW7i2jeNudMfe+8alyjvm8bc5c5NZ431ObRtz5n+lO/ILetz6cHgnOmstT7X2D6nvHfLS+gPTXut7/eSOqa+Pmbqvu6W/cuSOqaUnWLJvnyr5Ztbdoqp+9Vbvt9L6hgrO9WS79hay7fHvmdo+mvtX5bUMfX1MUN173H8cuRvx5BdxsiscWC5R7kj3DqvR204U62VzrdO+WtNO9K2t7Vo63St71Lp38mjzAlYJdexpO616t2jjiV1R6rj1rpv+X7vUcetdZdeR58tWkGOqGNJ3Xv81pZ8bLNLkDlyBczdIdzS7Hf5t0e5piWtGnvtcKacQZuy/HtuQ1se0K6x3scO1qZuT3sc2N26bY9NZ+1lyJ1hWrIMJe/0h2y5TZT+Q3zrsk8tu8e+fovvylr78q3q2Ovzm/veterYc/mOqOOofc9edex1zLXHibQ9fovn2K1r2a3mrqTmip6z81+j5WjOdG7tcjJHXderHFiuZe0d9a2WbDNzprN1iJmzPvdY12st+9Qm87WVtn1u7d6Xb8heZ6svtqpry33PkD2+K0N13Pu2a/mOnd6tdeyxfGvvX+bUcfT2GSLILFlJJa3krSwJd0vWyyUA7WXuF3Kt+Zu7bvrms7Rt76j1OdceB3pDdS852z3lAG6N9blkGrn5POqz3cKR28sSa+1f1qzjSNE+v5TW20+sVcda1tq/rF3HEmutv7n7+b301b3m/mWtOvZSfJDZuzmu+eFe/i7lwzpSewPeq64lZfY6UFvSQnjL9rV0Gn1nVYam8wjrc6mjts+505jSctdej5H2f2vNV6nLbvmmsXzrWGv/MreONZdvzePFtXozWL7tFR1k9kx8tyTuI5LpUWl4zXq3WIaSzhI0rXFGZ2wac1rYps7LPa/PsbK3tngufc8a9cydTklnHPd278u+x/Id2ZVnr8/vqGXce/vceznXWr4jt8Ehlm97RQeZlLpnBqasoCVlbrW0G8DezetL6ttyHteY9trTaE9nzud0xLbXV/+R63Nonc1Zn0d8R5pKWZ9D01i6fUY5WD96G1jDWvuXpXXsYY3v+9I6jnRv2+ct+5eldaxlyXdg7vId+T3rq3vN/cuSOo5W1SXNDQAAwAS7XH4ZAABgTYIMAAAQjiADAACEI8gAAADhCDIA3pumLwAAAZRJREFUAEA4ggwAABCOIAMAAIQjyAAAAOEIMgAAQDiCDACDqqpa9NradR1h6vyUNt8Aj+Db0TMAwLpyB9V1XS+eXrNsVVVXj2+Z7lhdpWuviyXlU4q1zAAl0SIDcIfquv78x/puDTEpCTAAt9IiA3Dn6rq+OvButti0W1va5S7PX6bRfF97umPTbk6j/Xr7fUvKtFs45i5n3+tz5OocWo7cOgRgGkEG4M7lwkHutZSGWwnGDrrHpt0XpubM+5T3jT3OBZeh9TPV0LwuWXYAhulaBnCHqqr6/Dd2tn/LA+ux1pQxU8uU0KLRDoR9y95+DYBltMgA3KE5AaDdVWxO+anTPkJf3bfOkxACUAZBBuCBjY2LWXPaexvrJncxdz6PDmgAfNC1DODBbdktq4QuX0PWDCTNaQ2NtTG4H2AdWmQAHsjQ2I0pB/VD3c+mXGFsL7lWk9yy5uZ5abgZKqsVB2B9Ve20EADMMqdVZc6V3gCYTtcyAJhpjRYWLTQAt9G1DAAWuLUlRUsMwG20yADAhgQWgG38f7slXb0RXGhIAAAAAElFTkSuQmCC;" vertex="1" parent="1">
          <mxGeometry x="-452" y="33" width="758.97" height="540" as="geometry" />
        </mxCell>
        <mxCell id="Zaewg4Ofl3aSR8xDvAoy-5" value="" style="shape=image;verticalLabelPosition=bottom;labelBackgroundColor=default;verticalAlign=top;aspect=fixed;imageAspect=0;image=data:image/png,iVBORw0KGgoAAAANSUhEUgAAA1IAAAI0CAYAAAAX/Bj0AAAABHNCSVQICAgIfAhkiAAAABl0RVh0U29mdHdhcmUAZ25vbWUtc2NyZWVuc2hvdO8Dvz4AAAAtdEVYdENyZWF0aW9uIFRpbWUATW9uIDI3IE1heSAyMDI0IDEwOjQ5OjA5IEFNIE1TS2besLQAACAASURBVHic7N15fFxXff//951d+2bJlvd9SRzbsZ3N2chKqJ0QlkCAUqAFSgrfwhdok7ZflkKXUKDQhQYI7Y+ELRBKghNnjxMTx85ix0u8W7ZkWbZkSdY2kmbV3N8fo5FH0sxo7mgka+TX8/HQw9Lc5Zw7skbz1jn3cwzTNE0BAAAAANJmO98dAAAAAIBcQ5ACACAHGIaR8PNk+wAAxhZBCgDGgGEYgz4wsmw9TzzfAIDx4DjfHQCAycYwDHH7KQAAkxtBCgDGWfyIydDANXQ0JbZ9aDhL9HWic8b2S7XdyuPpXovV/sS+jv0bf93ZOE+ifo20fehzb6VvidoYqe1090lHsutIdu50t6V7DABcCAhSADAGko1KpQpEqcKRlbZGamM0fRztNSbrTyyopHuclfPESxSckj3/mV5TonZGejyd/qUr2fd7pHNn8r0kPAG4kHGPFABkWfyb2Ilwv85EeLOb7giXFeN5Xem0NRG+15KGBZ2J0i8AmGwYkQKAMTA0TGUy0mRFts+ZzfON5s38RL6ueEOn/iWaWpjs8fHo30jnTtW3ZMelcz0AMJkRpABgDCUKEWPxpjPb58zm+UYTDsb6uRqrSoHJpgumM41wLEN3uvdypTt9L53rAYDJiql9AIAxNxHfZI9lSMmGbIzipbqPDQAwOoxIAUCWpRqBSjVClWoKnNVt6bypT1bNL93zpXt8ugFj6FSxbFxXqhCRqurfSG2lWwkxUbsjSda/dKU6Ltm5M/m/RRgDcKEzzIn4Z0IAANOlAACYwJjaBwAAAAAWEaQAAAAAwCKCFABMUEzrAwBg4iJIAQAAAIBFBCkAAAAAsIggBQAAAAAWpVxHKp2F/IZuz2TtEAAAAADIJUmDVKrF/IYuPBi/OF+ybQAAAAAwWSSc2kcAAgAAAIDkEo5IjWWI2rRp05idGwAAAMCFp7CwcNzauv766yVJhpkiNSUamRrt1L5MR7saGxstHyNJ1dXVGR1He7RHe7RHe7RHe7RHe7RHe7nR3pYtWwYCzliKb4eqfQAAAABgEUEKAAAAACwiSAEAAACARSnXkUrENM2ka0Wl2gYAAAAAk0XKIJUsCKUKSIQnAAAAAOfTtxZ8YODze4/9ZtDjQ79OJn6/RJjaBwAAAGDSSxWaMmF5ah8AAAAATFSxwHTvsd8MC09DR5lSjVaNhBEpAAAAAJNafKDK1sgUQQoAAADApBEbVUo0GhV7LBthiiAFAAAAYFKJhalE4cnK9L1UCFIAAAAAJp34wJSt8BSPIAUAAABgUkpUBp17pAAAAAAgiWxP5RuK8ucAAAAAJp1EASpVqLIauBiRAgAAAACLCFIAAAAAYBFBCgAAAAAsIkgBAAAAgEUEKQAAAACwiCAFAAAAABYRpAAAAADAIoIUAAAAAFhEkAIAAAAAiwhSAAAAAGCR43x3AAAAAACyae2Cbw18vuPYvYMej/862TFDj0uEESkAAAAAk97QoJTutmQYkQIAAAAwacRC0Y5j96Y1yhS/vxWMSAEAAACY1OIDVSajT4kQpAAAAABMGrGRpUSjUbHHshGmCFIAAAAAJpVYmEoUnqxO4UuGIAUAAABg0okPTNkKT/EoNgEAAABgUhpaBn3tgm8lndZH+XMAAAAAF7x0p/JlOlrFiBQAAACASSdRQEoWmjIJU4xIAQAAAIBFBCkAAAAAsIggBQAAAAAWEaQAAAAAwCKCFAAAAABYRJACAAAAAIsIUgAAAABgEUEKAAAAACwiSAEAAACARQQpAAAAALCIIAUAAABgUim/b+3Ax9DHRzomXQQpAAAAAJNeuiEp3f0IUgAAAAAmjVgQart/x7BtiR6LP8aKpEHKMIyBDyvbAAAAAGAiiQ9KqUJTsqCVSMIgZRiGTNMc+IgPTKm2AQAAAMD5FAtDQwNT2/07Bh5LFKbiQ1Q6I1RM7QMAAAAwqcRCUaLwNHTUKX67lSl+jmx01Ionn3xSmzZtGu9mAQAAAExShYWFwx6LD0zxgSpbxj1IbdiwQaZpWj6usbExo/aqq6szOo72aI/2aI/2aI/2aI/2aI/2cqO9LVu2JHw8PjzFwtRI0/pix5XftzblPVMJgxT3PgEAAADIZamq9w3dJxNJR6TiR40IVQAAAABySTrlz5OFrHSq941YbCJWpQ8AAAAAEJVwRCp+BGpoiBo67Y+QBQAAAOBCk/QeqVQITwAAAAAuZKwjBQAAAAAWEaQAAAAAwCKCFAAAAABYRJACAAAAAIsIUgAAAABgEUEKAAAAACwiSAEAAACARQnXkQIAAACAXHV8530Dn89fc/+gx+O/TnZMomOHYkQKAAAAwKSXKCil2pYqREmMSAEAAACYRGKhaP6a+4cFpEThKH5/KxiRAgAAADCpxQeqVCNTVhCkAAAAAEwasZGlRKNRsceShanjO+8b9JEKQQoAAADApBILU4nCk9UpfMkQpAAAAABMOvGBKd3wNH/N/WnvS7EJAAAAAJPS0DLoqabsWb13ihEpAAAAAJNOulP5rIxCxWNECgAAAMCkkygcpQpMlD8HAAAAgDFGkAIAAAAAiwhSAAAAAGARQQoAAAAALCJIAQAAAIBFBCkAAAAAsIggBQAAAAAWsY4UAAAAgJy3ZcuWcW2PIAUAAAAgp11//fXj3iZT+wAAAADAIoIUAAAAAFhEkAIAAAAAiwhSAAAAAGARQQoAAAAALCJIAQAAAIBFBCkAAAAAsIggBQAAAAAWEaQAAAAAwCKCFAAAAABYRJACAAAAAIsIUgAAAABgEUEKAAAAACwiSAEAAACARQQpAAAAALCIIAUAAAAAFjmSbTAMY+Bz0zTT3gYAAAAAk13CIGUYxqCAFP91qm0AAAAAcCFgah8AAAAAWGSYCYaTYlP3TNMccQTK6ojUpk2bRtNfAAAAADhv1q9fLylJkJKS3wc12iCV6VTAxsZGy8dIUnV1dUbH0R7t0R7t0R7t0R7t0R7t0V7utjfWLN8jBQAAAAAXOu6RAgAAAACLCFIAAAAAYJHldaRiBSgSbQMAAACAC0HCIDVSOCI8AQAAALiQMbUPAAAAACwiSAEAAACARQQpAAAAALCIIAUAAAAAFhGkAAAAAMAighQAAAAAWESQAgAAAACLCFIAAAAAYBFBCgAAAAAsIkgBAAAAgEUEKQAAAACwiCAFAAAAABYRpAAAAADAIoIUAAAAAFhEkAIAAAAAiwhSAAAAAGARQQoAAAAALCJIAQAAAIBFBCkAAAAAsIggBQAAAAAWEaQAAAAAwCKCFAAAAABYRJACAAAAAIsIUgAAAABgEUEKAAAAACwiSAEAAACARQQpAAAAALCIIAUAAAAAFhGkAAAAAMAighQAAAAAWESQAgAAAACLCFIAAAAAYBFBCgAAAAAsIkgBAAAAgEUEKQAAAACwiCAFAAAAABYRpAAAAADAIoIUAAAAAFhEkAIAAAAAiwhSAAAAAGARQQoAAAAALCJIAQAAAIBFjkQPGoYx7DHTNBNuj38cAAAAAC4ECYPU0HAUH5wMwxgWqghTAAAAAC4kI07tSzQ6BQAAAAAXMsMcYThppBEoqyNSmzZtyqCbAAAAAHD+rV+/XtJ5CFKZTgVsbGy0fIwkVVdXZ3Qc7dEe7dEe7dEe7dEe7dEe7eVue2Mt5dQ+7n8CAAAAgOEofw4AAAAAFiUNUoxGAQAAAEBiCcufp2KaJutIAQAAALigJQ1SqQIS4QkAAADAhYx7pAAAAADAIoIUAAAAAFhEkAIAAAAAiwhSAAAAAGARQQoAAAAALCJIAQAAAIBFBCkAAAAAsIggBQAAAAAWEaQAAAAAwCKCFAAAAABYRJACAAAAAIsIUgAAAABgEUEKAAAAACwiSAEAAACARQQpAAAAALCIIAUAAAAAFhGkAAAAAMAighQAAAAAWESQAgAAAACLCFIAAAAAYBFBCgAAAAAsIkgBAAAAgEUEKQAAAACwiCAFAAAAABYRpAAAAADAIoIUAAAAAFhEkAIAAAAAiwhSAAAAAGARQQoAAAAALCJIAQAAAIBFBCkAAAAAsIggBQAAAAAWEaQAAAAAwCKCFAAAAABYRJACAAAAAIsIUgAAAABgEUEKAAAAACwiSAEAAACARQQpAAAAALCIIAUAAAAAFhGkAAAAAMAighQAAAAAWORItdEwjIHPTdMc8XEAAAAAuBAkDFKxoJQoJBmGMSxUEaYAAAAAXEiSTu0jHAEAAABAYoaZIDHFT92Thk/rG82I1KZNmzLpJwAAAACcd+vXr5eUIkglC0ujDVKZTgVsbGy0fIwkVVdXZ3Qc7dEe7dEe7dEe7dEe7dEe7eVue2ONqn0AAAAAYBFBCgAAAAAsIkgBAAAAgEUJy5+bppl0rahU2wAAAADgQpB0Qd5UAYnwBAAAAOBCxtQ+AAAAALCIIAUAAAAAFhGkAAAAAMAighQAAAAAWESQAgAAAACLCFIAAAAAYBFBCgAAAAAsIkgBAAAAgEUEKQAAAACwiCAFAAAAABYRpAAAAADAIoIUAAAAAFhEkAIAAAAAiwhSAAAAAGARQQoAAAAALCJIAQAAAIBFBCkAAAAAsIggBQAAAAAWEaQAAAAAwCKCFAAAAABYRJACAAAAAIsIUgAAAABgEUEKAAAAACwiSAEAAACARQQpAAAAALCIIAUAAAAAFhGkAAAAAMAighQAAAAAWESQAgAAAACLCFIAAAAAYBFBCgAAAAAsIkgBAAAAgEUEKQAAAACwiCAFAAAAABYRpAAAAADAIoIUAAAAAFhEkAIAAAAAiwhSAAAAAGARQQoAAAAALCJIAQAAAIBFBCkAAAAAsIggBQAAAAAWORI9aBjGsMdM00y4Pf5xAAAAALgQJAxSUvKAZBjGsFBFmAIAAABwIWFqHwAAAABYZJgJhpOGTu1LNQJldURq06ZNmfQTAAAAAM679evXS0oSpIaKD0ujDVKZTgVsbGy0fIwkVVdXZ3Qc7dEe7dEe7dEe7dEe7dEe7eVue2ONqX0AAAAAYBFBCgAAAAAsShikEpU/BwAAAABEJS1/nmytKNM0WUcKAAAAwAUtYZAaKRwRngAAAABcyLhHCgAAAAAsIkgBAAAAgEUEKQAAAACwiCAFAAAAABYRpAAAAADAIoIUAAAAAFhEkAIAAAAAiwhSAAAAAGARQQoAAAAALCJIAQAAAIBFBCkAAAAAsIggBQAAAAAWEaQAAAAAwCKCFAAAAABYRJACAAAAAIsIUgAAAABgEUEKAAAAACwiSAEAAACARQQpAAAAALCIIAUAAAAAFhGkAAAAAMAighQAAAAAWESQAgAAAACLCFIAAAAAYBFBCgAAAAAsIkgBAAAAgEUEKYvqXtqlJz7xLzrx8u7z3RUAAAAA5wlByqK3H35e7UdP6e2HnxuX9raeeEsbHr5HW0+8NS7tAQAAABgZQcoif3u3JKmrvkUhX2DM2/vG5v9SbXuD7t/y4Ji3BQAAACA9OR+kjj75mp769PdU8+RrY97W2UP18rV2yuZ0KOwPqva5HWPa3i/3bNKprjOSpEB47EMbAAAAgPTkfpDauF2tB+p05IntY97WiZf3SJKmrV4oSTr82NYxa6u2vUHf2fo/kqQid4FOe1t0uLV2zNoDAAAAkL6cD1LuknxJUteJMzIj5pi2FQtSF3/oRnnKitRec1ot+7IfbkJ9Yf31M99RIBzUey66We9afK0k6cVjYz/qBgAAAGBkOR+kQr3RKW/Bbp+adh0ds3Y6jp2Wt6FFnrIiTVu9WItuv1LS2IxK/dfrv9KB5mOaWTJVf3P9p3XzgqskSc/XbMt6WwAAAACsy/kg1dN4duDzuhfGrrJdbDRq9nUrZNgMLb5jnQybobrNuxXo7MlaO7saD+onO34ru82m+9/5JRW48nT5zBUqchfoSGud6jsas9YWAAAAgMzkdJCKhPvU29opwxa9jBMv71Yk3DcmbZ14Kbpu1Jx3rJQkFUwr14yrLlYkFFbNpuxMuesJ+nTfs99VxIzok2vfr0url0mSnHaHrp93mSTphWOMSgEAAADnW04HqZ7mdpkRU/mVJSpbNENBr0+nXjuQ9XY6T5xRR12TXMX5mtpfaEKSlrznaknSkce3ZeX+rH/e8mM1dJ7RxVULdc/lHxq0LTa974Ua7pMCAAAAzrecDlLdjW2SpMLqcs27ZY0kqfa5nVlvp75/Wt+say6RzW4feHz65ctUOL1C3tOtOv3GwVG18XzNNj124AW5HS5967YvyWl3DNp+7dw1cjtc2nvmsFp62kbVFgAAAIDRyekg1dPULkkqnFaheTevkQxDDdv2Z32h3LqXB0/rizFshpbcGR2VGk3RiTPeVn39xf+UJH35mk9oXtnMYft4HG5dM2e1TNOkeh8AAABwnuV0kOruLzRRWF2ugqpSVa2Yr7A/qIZX3s5aG97TrWo/ekquAo+mX7502PaF66+UzenQqe0H1NOU2UjR5x79hjr8Xl0zZ40+vHJD0v1uonofAAAAMCHkdpBqOje1T9K56X3PZ296X6xa34yrl8vmsA/b7i4p0JwbVsmMmDqy0XrAeXDbb/TikW0qyyvWP97y+ZT73jD/cjlsdu04tU9dgW7LbQEAAADIjtwOUv33SBVMiwapuTesks1u1+k3DivQlZ2S5LH7o4ZO64u39L3XSJJqnnxNfaFw2uc+2lKnrz39b5Kkr9/0OU0pKEu5f7G7UGtnLFc40qeXj7+ZdjsAAAAAsiung1RsDanC/iDlLinQ9MuXKNLXp7rNu0d//uYOtR6slyPPpRlXLEu6X+XyeSpdMF2+Nq+OPPt6WucO9YX16Uf+n/yhgD6y9o6BqnwjuWXhOkmUQQcAAADOpxGDlGEYCR+LfZwvA2tI2W3Kn1o68Pjcm7M3va9+yx7JNDXzqotldztT7hsbldr1i+fSOve3Xvix9pw6pDnl0/XPt3857T7dtOBKGYahrSfekj+c3aIaAAAAANKTMkglC1GmaQ58nK8wNbCG1JSSQSXJZ113iexup5r3HldPc8eo2ogtwjs7xbS+mHm3rpUz36OTbxxU69GTKfd9/cQeff/ln8pus+mHH/ymCt35afepsqBcK6YtUSAc1Ct12S/1DgAAAGBkOTu1L34NqXjOPLdmXb1cMk3VvpB50PCd7VLLvlrZXQ7NuOqiEfd35rk1/7bLJKUeleoO9Oozv/6KImZEX3jHx3XFnJFD2lA3L7hSkiiDDgAAAJwnjmQbYiNP2R5xevLJJ7Vp06ZRn6f99RpJUsApvfXWW4O2RRaUSpulAxu3Krg0dQGHZNq2HpYZMVWwZLrePrg/rWMiS6Ohbs+jm+VfOUU21/Cn98Ejj+tE22nNK5yu5YGZGT0X1YESSdKLNdv1+yc2ymEbXk0QAAAAQPatX79eUpIgFQtRY2HDhg0ZnbuxsXHQ17vfatIpSXOWL9LK1asHbYusWKlf/+o1+RvadOXSVapYMMNyew8/tF2StOLd12n+kPOn4nv+iBrePKhZ/nytes8tg7Y9sW+z/vDKLnmcbj3y5/+uRZVzB7YNvb6R/Lj29zrSWqfipVW6YdGVlo7NpL2Y6urqjI6jPdqjPdqjPdqjPdqjPdobz/bGWu5O7WtKPLVPkmwO+0C58gMbt1o+t6/dq6bdNbI57Jp5zXJLx67+41slDZ/e99T+l/WZX39FkvSNP/r8oBCViViVvyf2bR7VeQAAAABYNyxIxabyxVflO98V+hIZuobUULHFeQ8+8arlcx99/k2ZfRFVr10iV2GepWMXv/MK5VeUqPngCZ166/DA4//w3H/JFwpoXsUsffKqD1ju01A3L4wGqacObFHEjIz6fAAAAADSNyxIxVfki03Bi/98ohi6htRQ0y5dpPwpJWo/0aTGvccsnfvw09EiDqkW4U3G7nRo5QdvlDR4VGpO+XRJ0mev/YjlcyayZMo8zSqZpmbvWb1Z/3ZWzgkAAAAgPZan9sUKUMQ+zkfASraGVDzDZmjOjZdKsja9L9DVo7ptb8uw2zTruksy6t+qu2+WYTN06KnX5Gv3SpLq26JzQlfPujijcyZyU//0vif3vZS1cwIAAAAY2YhBKlFQGjpiNd6SrSE1VGx636FN22RG0utrzYs7FQn3aeqqhXIXF2TUv+IZlZr/jtXqC4a099HNipgRHT8bXVtqUeWcjM6ZSGx636b9BCkAAABgPOVksYlka0gNNWXZbJXNmabu5nbVv55eCfNDz2Q+rS9erOjE7l++oBNnTysQDmp6SZUKXOkvvjuSldOWqKqoQnVtp7Sv8UjWzgsAAAAgtZwMUj1N7ZKkwmkVI+677ParJaVXdCLY61fdK3tk2AzNvm7FqPo479pVKplVpY6TZ7T15WhlvdFW6hvKZtj0RxddL0natP/lrJ4bAAAAQHI5GaS6Y4UmRhiRkqSLbr9GknT4mdfUFwqn3PfYS28pHAhpxpqlyqsoHlUfDZuhSz8cXUfq1T9skSQtrpo7qnMmsuHiGyRRBh0AAAAYT7kZpFKsITVUxcIZqrporvydPTq+ZVfKfWPV+pbcdsXoOylpxV03yu5y6vCZWknSwilzs3LeeNcuuEwleUU60FSj2rMNWT8/AAAAgOFyM0iNsIbUUBfdER2VOrgx+fS+sD8YDVqGkbUglVdWpCXvulJthSFJYzMi5bQ7dOvS6PU9uX/0o1IvHXtdd/zsL/TSsddHfS4AAABgssrJIDXSGlJDLdtwtWQYqtm8U8Fef8J9jm/ZpVBvQNNXLlRRGvdepWv1H9+qtuKgJGl+2cysnTdebHrfk/teHtV5vIEefX3zf+pY20l9f/vDWegZAAAAMDnlXJBKZw2poYqrKzRz7VKFfAHVPP9mwn0OPxMdgVmcpdGomIJl1epx98kZtql7e21Wzx1z85J18jjd2nHybZ3xtmZ0jkA4qL/Y+A219nZIkmaXTM9mFwEAAIBJJeeCVLprSA0Vm96XaHHevmBIxzbvlJS9+6NijrbUSZIqvE7t+sVzWT13TJ7To5sWXyXTNDOq3hfqC+vzm/5Jb50+oIq8aDht9DZnuZcAAADA5JFzQSrdNaSGWvquK2Wz21X7yl75OryDttVt3atAt09TL5qn0llTs9ZXSTrSXCdJmtLr0ck3Dmr/43/I6vlj1mdYvS9iRnTfs/+qV+p2qiK/VD+882uSpLqO01nvIwAAADBZ5FyQsrKGVLy8siLNu3aFIn19OvTUa4O2xab1ZXs0Sjo3IjXLNUWStOOnT2e9DUm6bdm1ctjsevX4TnX4utI+7hubH9AzR19RkbtAP7rz73VR1UKV55XIF/KruefsmPQVAAAAyHU5F6SsrCE11LLbh0/vi/T16eiLOyRJS951ZRZ6OFhNywlJ0qWXXCpJ8hQXZL0NSSrNK9bV89coHOnTsweHT19M5Ltb/z89uu8ZuR0u/dcdX9WyyvmSpDml0fujattOjUlfAQAAgFyXe0HKwhpSQy269TI5PC417Dikrv5AdmLbPvk7ujVl0SyVz89+gYUj/SNSV12xTpLU1ZhZMYh03L78RknplUH/yY7f6n92/k5Ou0P/tv5vtXr6RQPb5pbNkCSdYHofAAAAkFDuBSmLa0jFc+V7tOimtZJp6uCT0TWljsSm9Y3BaFSoL6y6sw2yGTZdunKNDLtN7Sea1BcMZb0tSfqji66XYRh68ch2+UKJy7xL0k9f/52+9+pDshk23f/OL+rauWsGbY8FqboORqQAAACARHIuSFldQ2qoZXdcLSk6vc/si+hIfzn0sbg/qq6tQeFIn2aXVSs/v0Bls6fK7IuorbYx621J0rTiSq2ZtVz+UEAvHN6WcJ/f7XlOX378fknSV2+8R7ctunbYPrGpfYxIAQAAAInlVJDKZA2poeZff6ncxQVqPlCn/RtfUe/ZTpXNrVblktlZ7u25in2LKudKkqYsmiVJaj16Muttxdy+PFq9L1EZ9OcPv6p7fvNVRcyIvnjNx3XX8tsSnmNe/8LBtW0NY9ZPAAAAIJflVJDKdA2peHanY2D0aefDz0gam2l9klTTGi00sbByjqS4IHVk7AJKrAz6s4deUagvPPD49tpd+tjP/zq6ZtT1H9OfrXlf0nPMLq2WzbDpVNcZhSN9Y9ZXAAAAIFflVJDKdA2poWKL8zYfqJU0NtP6JOlo/4jU4qq5kqSKRdGRntaasQtS8ytm6aJpC9Xp82rr8Wg1wr2nD+vun35B/lBAH7/ivfrau/5PynO47E5VF1UqHOnTqa4zY9ZXAAAAIFflVJDKdA2poWZfcbHyyooUCUdUWFWmacvnZ6N7w8Qq9sWm9lXGgtQYTu2TpA1xi/PWtJzQ+//7c/IGevSeFbfqO3fel9Y5zpVAZ3ofAAAAMFROBanRrCEVz7AZKp5RGT1XVdmo+5XM0SFBqnz+9DGv3CdJG5bHgtRLes9P/kKtPe26eck6/fCD35DNSO9bPreMghMAAABAMrkVpEaxhtRQV3zydk1dPl+Xf/L2UZ8rkZbuNnX6vCrNK1ZlYbS/dpdzzCv3SdLy6sWaVTpNZ3vadarzjK6ad6ke/uNvy2l3pH2Ouf0FJyiBDgAAAAyX/jvrCWA0a0gNtez2q7Xs9qtHfZ5kYhX7YoUmYqYsmqW22ka1Hj05JpUCY1wOtySpsrBMv/rY9+Rxui0dP5cS6AAAAEBSOTUiNdo1pMZTTWudJGlx/7S+mPGo3CdJ//Luv9bCyjn60d3/oGJPoeXjY4vy1rYxIgUAAAAMlTMjUtlYQ2o8Dawh1V+xL2Y8KvdJ0g2LrtAbX/rfjI+vLqqUy+5Uc89Z+UJ+5Tk9WewdAAAAkNtyZkQqG2tIjaehhSZixqty32jZDJtml1ZLkk50jN39XAAAAEAuypkgla01pMZLLEgNndo3XpX7smFuaXR6X10HJdABAACAeDkTpLK1htR4CISDOtneJKfdobkVMwdtG6/Kfdlwbi0p7pMCv6j4WgAAIABJREFUAAAA4uVMkMrWGlLjoablhCJmRHPKZ8hhGz4NcaDgxASf3jevPBoCqdwHAAAADJY7QSqLa0iNtZrWE5KGT+uLGa/KfaMVG5FiLSkAAABgsNwJUllcQ2qsDVTsSxKkxqty32gNBKl2ghQAAAAQL2eCVC6tITVQsW9I6fOYXKncV5FfqiJ3gbyBHrX5Os93dwAAAIAJIyeCVK6tIZWsYl9MTlXu61+Yl/ukAAAAgHNyIkh1NbbmzBpSpmnqaEv0HqmFlXMS7pNLlfsGSqBPsOl9r9Xt1ppv36nX6naf764AAADgApQTQaqzoUVSbhSaaOxqUW/Qp8rCcpXmFSfdL1cq950rgT6x7uf67KNfV+3ZBr33vz+rZw7+4Xx3BwAAABeY3ApSObCG1MD9UUmm9cXkSuW+eeUTb2pfe2+Xmjqj/yf8oYA+/NAX9eXH75c/FDjPPQMAAMCFIkeCVLOk3BiRGqliX0zuVO7rn9o3gUqgP/zmY/KFA7pp0Tr944Yvyu1w6X9e+61u+I+Pal/jkfPdPQAAAFwAciNIncqdqX0DhSaSVOyLyZXKfXNKqyVJ9R2NipiR89wbKRzp04Pbfi1JuufaD+meaz6s5z/7Uy2pmq/Dzcd1yw8+rge2/lKmaZ7nngIAAGAymzBByt9dq/bTz8nfXTtsW2xqXy6sIZXu1L5cqdyX78xTZUG5gn0hNXpbku732CO79afv/7kee2Rsiz88se9Fne5s1uKqebph0ZWSpOXVi/XS//mZ/uyquxQIB/V3T/6rPv3419Ta0z6mfQEAAMCFa8IEKV/XUbU3bpavq2bYtq7Y1L4cCFKxqX3JKvbF5FLlvvnl0dGzVPdJPfHbfdq765Se+N99ls7dfvS0/vd9f6/2o+ndg/XA1l9Jkj5z9YdkGMbA4x6nW99+97365cf+VVMKyrStfpfu/MXn9HLtG5b6AwAAAKRjwgQpp6dSkhTyDx71iIT75D3TlhNrSPWGfGrsapbb4dLssuoR98+1yn117cnDTjjcJ0lqO9tr6dwv/tWP1HOmTZs+/V01vLo/5b47T+7Tjvq3VZZfrLtXr0+4z23LrtPWLzyidbMvVbuvS5/d+E1986UHFAgHLfULAAAAE4MZMeXr8Kq9rlGndx/VsZd3af/jr2jnQ09r6789qpOvHzgv/XKcl1YTcLqnSJJCgdZBj8fWkCqYWjrh15Cq7V9racGU2bIZI2fUKYtm6chzb6j1SINK18wf6+5l7NxaUskLY5xu6Oz/t0PeroCKit0jnvfYM2+ot7VDNoddkVBYm+/9sZa85xqt/dydsrudw/Z/YOsvJUkfu/y98jiTn7+qqEI/vvPv9bPdG/W9Vx/SI3uf0psN+/Ttd31ZS6bMG7FfAACcb2bElL+rW/6Obvn6P/wd3WraU6Mzh+s1delsTVuxUJ7SQuX1f3hKC2VGTBk2Y+QGzrNk19e496iaD51U6cxKFc+oHHZcd3d3wvN1N51Vd2O7CqeVJ7yn/lhhYcLjuhpa1HGqJevP50S5vs5TzepsaJ3w7fU0tsnb1CZ3cZ7sLqeCXb0KdPUo0P9vsNsvjXD/+6wrLkq5fSxMnCDliQapoH9wkMqlNaRiay2NdH9UTHzlvoVj1aksGFhLKsmivM1NXnW0++Rw2BQOR/TWG/W6/uZFKc/pa+3SG9//nSRp3b13y9/Vq7d++IQOP7ZVZ3bV6Nqvf0xlC6cP7H+6s1kb335RDptdn1r3gRH7bBiG/uTSd+uKWSv0V09/R8fa6nX3I1/Sxypv1IJnfJq6aoHcRfnDjjtaWKDuiF/dEZ+6Tb+6+j/f11ar2tAZLSyYrrVzL1FFaYWmllWqckqVplVNU6TPlD2DoB8xI+rwedXe26kOX5faejvV3tupnSf362BTjWaXTdesBKObyV6ITnU163TXGS2qmKtLpi1SiadIpZ4ilfR/VPVVKejtHbdfzLn+iyT2wl6+oFoVy+bIVZwvd3G+PCUFchXny5ya+fMS7O5VsKtX/s7oL4pgV6/OHjyhtmONk7a91oMn1H6scdK+EaA92hvPN44nX08yi8Mw5Cr0yF1cIHdxvtzF0Z/ncDCoYJc/h64v6aaUzmR2mOXnsy8QUsDry6HrS/y4aZjyO035XH0KuCPyufrkc/XpdFlQraVBTWl0afoBl/KCduUF7XIHbMoL2uUJGTLM5L8fMr2+pOxSpMwjs8KtvjKXwkV2BQttCuQZCnhMLV54fgZbJkyQstnzZHcUqC/co3CoSw5ndDHbXFpDqrZ/xGakin0xuVK5b94I90gd3NckSZo6vVin6jv05rYTIwap7d/+tULdPs28ernmv+tySVL1msV65esPqaOuSZs+9V2t/sztqv783ZJh6Cfbf6NwpE/vXXmrqour0u77kinz9OiHvqd/fPYH+t+azXqw6VmVLnRqdt0uhW2mfK7IuRcPZ0QBb58SvuzZJLmlo+FWPV2zd9hmQ5I7ZFd+n0P5pktFylOR3aOAGVJPJKAiV77yPfnqjgTkNX3qUUDdZkC9CoxQYXBn2tca742Gt6U9wx83JLmDduWFbAMvhnlBm8J2U/68iEoOOFSyI9HLgiG7yyG72ymH2ym72yW726lWedVqdmuKUaQpKlRfIKS+QFDhQCj6eTAsJXhGOwvC6swPq6TeoZJD6b8MdeaH1VkSHvcX9jO7jiZ83LRJZrlHkXKXImUuhYsdChbadLSvWSfVpipbsapsRQr7gwr5gwrHPgIhJXxeYtdX49L0NxNcX9imvKICeUpiQbdIntJChf1B+Tp7lFdaIIfb1R9cvdHg2tktf1dvyl/oVq+vpq9Z9WrTbJVrob1Kru6IHF1h2dqDsrUFZbT5ZaQo8pntNwIjmSjtjfiG5ZhL03dY/3+d62+skrcXUGtpSCWtDpXUW3ydKAhn/fkcsZ+Zvp51uDS9fXg/82w2eQoLBn7O80oK5SkrUp8vqN7ObuWXFMqe55K/3StfZ/fAz72/u0edgR75OrsU8Efk6zi/z2cyhs2Quzjx9fk6vSqZWaWSmcODW5e3S91mQN2mX70KyGv61R3x65D3pOrDrZrqLNW0guHvGd2uxDNZGrrOqCnYriqjWJX2YoX9gcGv18HQ4NfP7uhHZ0H0+1fS41BJa//zaZNU2v9hGHK4nHJ4XHJ4XHJ6XHJ43GqOdKkl0qlprnLNLJ46rD+BYOI1MRt7WtUc6szw+tpU7C5UQV6BvBG/vJFedZt+eSN+9Zip34fUV/r0VoLHDcNQgeFWkc2jQsOjIlu+imwe9fh61BXotnx9Td1ndSbcoZK8IhUVF6vbCEbfL0X86gr2yhvqSdzPUPRjtnv8R6OkJEEq/iZ+ScM6Hr89m2WmnZ4p6uvuUcjfEhekcmcNqePt1kak4iv3RUJh2ZwTJtcOMqN4qhw2uxq9LQqEg3I7XIO2H9oX/bWz4tIZOlXfoTe2nUh5vmPPvKGGV/fJVZSnK//q3OhS2cLpWv/fX9aOH/xeh3/3inb8x2M6u/u4bvznT+qhN6KjV/dc82FLffeebtXenz6nxc+e1PumTtXGK1vUURhSR2HiSok2GSqwuVVs5KnQ7lGhkadie556enrUGexWkc0jt92lzlCvvKZPvQqoxx6S3xGR39knv7NPbQpI8g45c1v0h30IwzTkCUXDjCdokydoV37QppDNlN/dp+Iep0p6rP3C6yoMyxO0ydlnqNcVkd/VJ78rIp8rooAz9nWfVJDgBMN/Z6WlRm3RTzwWD8ywvfF+YS+0ueWyOeUN++WVT71GUL32sALOJMG7/1t2VP0j7AVK/HxbvT4lCMJn4oJwm0MlvXH/X4r6PwxDdmd/EPa4ZHc5Zfc41RrpVqu8o7q+F3Xk3BuH2XH9HPqHBYdHwUhY3RF/xm8ExvuNR6b/X4pd+crz5PX/4cTf/4cTv3oVzPgNS75cKjQ8KpBbRYZHhTa3en0+eUO9E/6NVa+vR52B7ozbG4vXiVTPZ6bfv7HoZ4mnSGX5xSrNK1Z5fqnK8nvlDwXU4etSaX6xPA632nu71NbboQ5fl9p7u9Tp906o53NaXoVmV86Q3e2UPRYs3E6VlJfJb0j+oe20t+lke6NK83vkcZxO//qc0Y8atUmB48O3J/6x7X/Bko5k+Hpt+fnsHzg5orOSN/EfsRJyRD8yvT7prOQbvtlm2FTkLojOXskrUom7SKV5RfKHguoKeFXiLpLb6VKHz6vOgFedPq86/F51B3v7Z/AM/Q6q//m0eH393z+pTepK3M+SvCKV55eoNL9YZXklKi8oUVlescryS3TN/LXpt5VFSd+hxf8nNQxj4Ov4zxN9PRpOd6X83ScU8rcqr2iBpNxaQyo2tW+kin0xscp9bbWN6qxvVtmC6SMfdB44bHbNKJ6qEx2nVXu2QUunDr6fKzYidc0NC/Ty80d0/Gir2lp7VD5l+CtR/JS+yz//PuVPKRm03e526oovvl8zrlimbf/8S9W+skdf/Myfq31Zl9bOvkRrZi1Pq8+xAFX77A5F+vpks9t126U36vJrp+gnhzfqtsXXambx1P4pb4UqzStWibtIi+cuSOv+tqEaGhrU1nZWLW0tam1rUVtnu9q97dp96rDq/E2a7ZiiZUWzVdj/C6ZA0TcaU4srZNPwv+RF52w3q2R24r/Ieb1Dg1rUualo0zXlouhULVdRvjylhXIX5WvmwrnqCvSo3RedQtje26X23k7tOLlfB5qOanbZ9ISFUrxdXvUFQ+oLhhT2B/tHnkKqbzmtRn+rqj1xvyjj3qyXVJQN+8OMJNW3N6q+/XTy9pJc3+muZp3yNqt03F/Y476OYzNsKnYXqMxdpEJHnoqMPBUZbnW2daitp0MzCio1v3rOwF8kHR63nB6XfMGAEnzb07q+sQjCGV1fb6fK84tVUl4mrxkdae0O+9Qe8Mob6En5h4XM3+iM7xuPUb0RSPCHk2RvBPzBgNp9nSrLK5HH5VZbT6fafZ3q6I1O9+3yd6vHDKjHjOtw3+ivb7zfWGXSXmfAqxlFVZqeYCZCUVFRwsurb2/UyfbTGT+fmXz/2nydY/J61uHrUocvwbvKFCba81mjNqnFws/Rebi+jH8fdZ3RjOKpE769k+2ntWzaIq2ddbHK8ktUlh8NH2V5Jert8Gb0vmfqtKnq9HVbfz8xws/D4oq5WjFtcdben421hEHqfC1mGrtPKr7gRK6sIRUxIwNT3xalGaSkaMGJttpGddY1TdggJUlzy2boRMdp1bSeGBakDu2PjkhdvLJaq9bO1PY/1GrHa/W6dcOyYecZNKXvtsuStjfz6ot1+0P36s3vPKqf5D8lSbr69FSF/UE5PK6kx3WcPKNt//k77X/sDwMBauH6K3TJx25V0fTo/68Nl92a9PhMf0jtdrsqK6tUWZn+tENJqq4eubpjIo2NmZXMt9vt/S+gxVLFrIHH77r0XWPS3nhfX668sE/26zt1+pS8gV51Brzq8HWp09+tTr9Xe5uO6MjZusn9RidHns/xfmN1sOlo1tvL9PUl1fN59GydFuXAz3uuPJ8T6f/neP8+ypX2/J09GR1nM2zj+n5iIoYoSTLMEVJT7K/J2RqR2rRpU9JtRZ5WzSw9qO5AhU62R+c6Hv7qowp19GrJ194nZ0XiGyEngmZ/u7705vdV7i7Wv13+pfSP27Rbzc/uUdU7V6pq/aox7OHo/OL4M3rm1HZ9cN4t2jDzmoHHvZ0hfecrh+XJs+lvvnWRtr7Youd/f0Zr1pXrjrsHB8OON4+p4WdbZc93aeHfvFvOkuHFHoZ6u+2o/mX/z1Xc69CfPzVb+VNLNfNj18kzo2zQfsGzXjU/s1edbx6XGYnIsNlUevl8Vb5zhVwViV+sAQAAAKvWr48uw5N0at9Y3Qe1YcOGpOcL+s6o4cBBlZUYWrFuvSLhPu3/wsMy7DZdduPVGZU/H6+/CPyhbock6ZJZSwee3HQciJTqiWf3yOOXVq9ebalNafyur8bZrGdObZejIm/Q9W196Zikw1q+cqbWr1+v+XOa9PzvH1LTycig/Y6/fViP/+1vJElXffEDmn9D8tGoeD99+llJ0qeuvVtVh+vVWtOg2u89rev/6sO67BN/pI6GZm37z9+pJm4E6pK7btCCu64ZGIGyIlf+gkR7tEd7tEd7tEd7tEd755fle6TGktNdIclQONAm04wMrCFVPL1i4q8h1WatYl9MrHJfR21m/7HGS6wE+rHW+kGPx+6PWnbJNEnSkoumqrjEo1MnO9R4qkvVM6JFQ9Kd0hevtr1Bm49uV57To89u+FMV3u7R5n/+mXb9/Flt/seH9MZPnlBva+dAgFpx1w266rPvVemsqRn/oAIAAADpmFATDg2bQw5XqUwzonCgbeD+qEQ32080sYp9C6fMtXRcrHKf91SrIqHwGPQsO+aVRxflrWkZXJEvVrFv6cXRylY2m6E1V0RLd725rU6StO+xLQmr9I3kZ7s2yjRN3b16vUrziuXwuHTr3/+Z3vfje+VwO9V9pk1mJKIVd92gT734fb3r/ntUOmt4hS0AAAAg2yZUkJLiC060nAtSM6zdwH8+1PUvVmt1RCpWuc/si6izvnkMepYdVQUVynN61NrTrk7fuRutY4Umli2fNvDYZVdFi228uf2Eus+064Vv/FRS4ip9yXT6u/X7g5tlGIY+c82HBm1beNMafehXX1fp7Kn64//9BwIUAAAAxl3CIGUYxqCP+Gl9pmkm3ZYNTk909Cnkbx1YQyoXRqRqLa4hFW/Komi1k866pmx2KevmlEbnp8am97W39epMY5fyC1yaNfdcVcXL1sWCVL2e+X8/VqCrx9KUPkn67f5n5Q8HdOOiqxI+p9NXLtKfv/Qfmr4y9cK/AAAAwFhIGKRM0xz0kWp7tjnd50qgx9aQmuhBqivQrbO9Hcp35ml6ifXRs1iQ6jg+sYPU3LLo/Vw1rdHpffHT+uKXCpq3sEJTqgrV2tytXZv3y1NSYGlKXzjSp1/sfkKSdM+Q0SgAAABgIphwU/tcsal9/ta4e6SyP7XvpaOv6Yrvvl8vH3191OeKjUbNK5uR0fEVsYITE3xEau6QghOxQhOx+6PirVoVnerXrCLd/JVPpD2lT5JeOLZNZ7rPan75LN2w6MrRdhsAAADIugkXpM5N7WtRV2xq34zsj0jdt/HbOtpSp/ue+M6oz3W8v2LfvPKZGR2fK5X75pbFCk5Eg1Ts/qilcfdHxbhO1kiSeipn6+L3XGepnYd3bZQkfXTVHYPK8AMAAAATxYQLUg5XqQzDoXCoS76Odhl2m4qmV2S1jaMtdTp+NhoGGtqb5A1ktqpzzPG2k5KkuaWZjUjlSuW+2PUdG5ja1z8itXzwiNS+x7ZIB9+WJDUG3IpE0p8CurfpsPY0HlKJp1DvXnZjNroNAAAAZN2EC1KSIacnGpwKpjpUNLU862tI/dNzP1RfxNT04ir1hnz6xY6NozpfrGLf/AxHpOwup4qmV0z4yn0DI1Kt9erq8Ot0Q6c8eU7NnX8u6Maq9BUoqMpyj7xdAR05mP41Pbzr95Kku5bfJrfDld0LAAAAALJkAgapcwUniqa7sl5o4u3TR7Rx34tyO1z6m1s+I0n67+2PjqpwxvGBe6QyC1KSVDovWhFvIlfuK3IXaEpBmXqDPr26c78kafGyKtls56bfxar0Lbhxja6+ZYkk6Y3+9aRGcqb7rJ6v2SaHza6PrNqQ9f4DAAAA2TIxg1R/wYnCakfW15D6p+cfkGma+rOr7tLdazZoVlm1jrXWa/PR7RmdL9QXVkNnk2yGbWDEJhOxIJWtyn0n3zioH9/0lzr5xsGsnC9mwZToYrvb9h2QNHha377HtujY5p3ylBTotn/8tC67Krrvjm31aZ37l3ueVDjSp1sWrlNVQXancwIAAADZNDGDlDs6ClVUnd0RqR31b+vZg6+owJWv//uOT8hus+lPr3y/JOnBbb/J6JwNXU0KR/o0o7hKLrsz476VzIsWbMhW5b6n73tA7XVNevyz31XA25uVc0rSwsroGlFvn4gWk4gtxNtyqF5P/82PJEk3f+UTKqwqG1iYd9eOkwqHIynP6w8H9Oi+ZyRJf3Lpu7PWXwAAAGAsTMwg5YlN7XNmNUj9w7P/JSm6NlFFQakk6aOX3Sm3w6XnD7+q2rMNls85ULFvFNP6JKksFqSyULkv5Auo92ynJKm3rUu//eT9CvuDoz6vdG5E6nhbdJRp6cXT1Hu2U7+4+6uKhMIqqCobqNJXPqVA8xdNka83pCMHWlOed+PBl9Tp79bK6qVaMW1JVvoKAAAAjJWJHaSqnVlbQ+qVYzv0h2NvqjSvWJ+77qMDj5fnl+j9q26TaZr6yXbro1J1HdFCE6OZ1idJxbOrsla579BT2xXo9mnaxfNVXF2hhh2H9NhffFeRcN+oziudC1Jt5lm53A5NK3foVx/5hgLeXrmL8vXBh/5u0P6xUak9O5MHRNM09bPd0YIff3LpHaPuIwAAADDWJmSQsjsKFfJJzgKbiqoLs3LO2GjU5677YxV7Bp/zU+s+KEn65c4n1Bv0WTpvbf+IVKYV+2JsTkfWKvft/tXzkqTVH7tNH3z4K8ovL9bxLbv05Bf/Q6aFUuSJLKqcK0kKFXZpwcJy/eZP/kGtR0+qcvEsfXrzv6ty8exB+19+dTRI7d2ZfMritvpdOt52UtMKp+jmBetG1T8AAABgPEzIIBUJ98l7OiBJcpelvrcmHc8d2qo36/eqsrBcn7n6Q8O2r5i+RFfMWalOn1e/2fW0pXNno2JfTDYq97UcrtfpXUflLi7QsvXrVD5/uj7w0N/JXZSvg5u26bmvPDiqPs6rmClDNoULe2ScqhsIUXf/4mvKLy8etv/qy2fLZjN0aF+LAv7EI22xBXg/vGqDHLbslroHAAAAxsKEDFJdja3yngpJkvpCZ0d1LtM09U/PPSBJ+sI7Pq58V17C/WKjUg9u+7Wl88cW481mkBpN5b7YaNTFd14rhye6DtPUi+bp/Q/eK4fHpd2PvKAt//KLjM/vdrhUGCmWaZiK9KUOUZJUVOzW0ounKhyO6ODbLcO2v1z7hrbW75Tb7tJdy9+Zcb8AAACA8TQhg1RnQ4u8jdHiCCH/8DffVjyxb7P2nj6s6SVVAxX6Erl9+Y2aWjRFB88c09bjO9M699neDnkDPSp2F6oiv3RU/ZRGX7kv5Ato/+OvSJJW3X3zoG0zL1umO3/wJdkcdr32o99r3y9ezKiN3rOdUms0oOXPN1KGqJjL1s2VJO3eMfw+qe+/+rBkSrNLp6nYnZ1pnAAAAMBYm7BBqrsxOg0s5E9d7S2ViBnRPz3/Q0nSl2/8pNwOV9J9nXaHPnHl+ySlPyo1ULFvlPdHxYy2ct+hp7Yr4O3VjEsXq3LJ7GHbF7zjUm347udk2Ay99cBGHfn9q5bO72/36uEPf1O2rmhwWvqpq0YMUZIG1pPa+9bggOgPB3TaG70f7PPr/sRSXwAAAIDzaYIGqWZ5T0en9oUCmQepJw69rCPNtZpbPkMfWTtyNbiPX/5eOe0OPXXgZTV1j9xuXUd/oYksTOuTRl+5Lzatb+WHbk66z7INV+vWb3xSkvT6dx9V3YtvpXVuf7tXz/3lD1RT0y6Ht0iS1OBPryjGqrUz5XDYdOzIWfV0hwYef/rIK+oJ+rRy2lLdMP+KtM4FAAAATAQTM0idalF3U3+Q8p+VZL3SXKgvrAde/5Uk6d6b/1xOu2PEY6qKKvTuS25WXySiR/Y+NeL+2R6RGk3lvqFFJlJZ9aFbtPqeO2RGTG395s916rUDKfePhaiO2kaFq6rl6o5OwTvWWp9W3zx5Ti1dXqlIn6l9u8+NSj2671lJ0l2XcG8UAAAAcsuECVIt3W36s1/+rVq629TZ0KKwPyKZ+TLNsMLBDsvne+zACzrZ2aTFVfN016W3pX3cp9Z9QJL0233PKtgXSrlvbRYr9sVkWrkvUZGJVJZ/5CYt/8hNioT79PLf/Y+a9xxLuF98iCqbX638tWvk7B+RqmlJL0hJ0iWro9MW9/TfJ3WktU57Gg+pyF2gP1p8XdrnAQAAACaCCROk7tv4HT229zld/+8f0b6u45Ikp7tCkvX7pIJ9IT3w+iOSpL+95TOyGelf5mWzV2jVjGVq93XpqcN/SLlvLEhla2qflFnlvlRFJlJZfc8dWnzHOvUFQtp874NqO9owaPvQEHXLv39ONUfb5OjNl8vuVGNXc9rrbq1aG72uPf3rScVGo25f+o6U964BAAAAE9GECVL33/FlrZu3Wk1dLfrJ8kPatcgrT3H0zbfVyn2P7H1KzT1ntaxyvm5ffqPlvgws0LvnyaT7BPtCOt3VIqfdoZkl0yy3kUwmlftGKjKRyhVf/oDm3nipgt0+vfB/H1BX/5TCRCHK8HhUd/ys7Da75lVEw+Ox1pNptbP4oiny5DlUX9uhMy0deuLQS5Kku5anP1oIAAAATBQTJkhVFpbr8U89oD9deaf6bKaeW9WiJw9HCyFYKTjRG/LpwTcflST95bqPyjAMy31578pbVZZXrP3NNdrTeCjhPnXtpxQxI5pRPDWri8hmUrkvnSITyRg2Q9d89aOaceVF8nd06/kv/EBtRxqGhShPaaFqj7Ur0mdqweIpWlQ5V5JU01qXVjsOh00XraiSJP30D8/IG+jRymn/f3v3HR9Zed97/HPOdGnUV31732ULHQwEFjAYs8EVbOO4XDvG8SUusePETo8dp9nJvU6uu30NbjcY9+ClGGMc25RgdmEX2N5XZVda1Rlp+jn3j5G0q9VImjNNo+X7fr14AZo5z+85R2eO5nee5/yetaxesNRxn0VERERE5lrZJFIAbtPFB5a+jtc83YzXdvHjvc8CMBTqmGXLM779/AP0R4a4sHUt1y69NKd++Nxebh9bHPY704xKFWNaHziv3OekyMR0TLcVCS1iAAAgAElEQVSLLX//bpo2LWekZ5AH/+B/T0miAA7uTS+OvHZDCysWpEe+nDwntemSdJL4yPFfAioyISIiIiLzV1klUpBeQ2rdiUo+Yd2G7Uovcnuy7wC/OTb7Irmh2Ahf3/5DAD74irfn1Y+3bLoVl2nyswNPcHpkYMrrExX7CpxIOa3c57TIxHRcPg83fPq9eKsqsBJJvJX+SUkUwKF9Y4nUBc2sbFyS/lmWlfsANl/SSrxmiFNmp4pMiIiIiMi8VoaJVDp5uKB9Nd9691ewgKaAlw/+9FN86ZnvYtvTl0K/Z8cPCcVGuHLRZq5YtCmvfrQEF3DD8itJWEnuf/HhKa9PVOwrUOnzs2VbuS8ZjedUZGI63mCAV3/xQ1Q21/Lqr3xkUhIFcGh/PwDrzh6ROn0s6/aXr6onsjb9/lcuvkZFJkRERERk3iq/RKozXViiZmEjNYFqfL4FmIbBosoA/+epb/OBn36KUGxkynb9kSG+9dwDAHzwFW8rSF/euvl3Abj/hYdJpCZPsyvW1D7IvnLf0V88l3ORienULG3hjT/4BDVLmif9PBFPcfzIEKbLYPW6polEysmIVNyKM7zoKACrY5sL0l8RERERkblQfolUx3gilS5M4PEvAOAfbnwXNf4gjx9+hjff9xEO9E0eCfnas99nNBFhy7LL2dy6tiB9uXzhRlY1LKF3pJ/HDj818XPbtjky0AkUZ0Qq28p9B/7zSSC3IhNOHT00QCplsWzFAnx+N43BemoCVQxFQhmnPmby0P5fkzBi+Poa6H2hyB0WERERESmiskukhsem9tW0NwLg8af/vaaunvvf8lnWNS7n2GAXd373ozy0Pz2trWekj//YuQ3DMPjgVYUZjRo3Pir17bHRrnS8fiKJKA0VtVT7gtNtmrNsKvcNHOqi98WjeRWZcOLgWc9HjXM6KjW+dlT14eXs2nGqwD0UERERESmdskqkrGSK0Kl+DJdJVVt6MV6Pb8HYa/0srGnmO2/6DK9bfyORRJSPPvRp/vlXX+MLT99HPJXgVauuYc2CZQXt021rt1Dlq+S57j3s6U0vFDzxfFQRpvVBdpX7xkej8i0yka2J56M2nlkza+WCdMGJg72zPye1//RRdnbvpcpXyeLRNfSfHuXE0aHidFZEREREpMjKKpEa7j6NbdlUNddjutJrM41P7bOTg0C6NPnf3/RH/OWW9+Ex3XzzuZ/w/ZcewTRN3n/lWwvep4DHz+vXp6fOfef59KhUsSr2jTu7cl+ocyfRnm+Sih2ZeD0ZjXP4kXRp+EIUmcjGROnzDCNS2SRS46NRt63dwqbNbQDs3J79WlkiIiIiIuWkrBKpM89HNU78bHxqn52c/BzOnZu38o07/hG/24dt27QFG4uW2Ny5aSuGYbBt338xGA2dKTRRhOejxo0XnDDZjp0cIDHwCHYqBKSLTMTDERovWFqwIhMzSSYtjh0exDQNVq9vmvj5ysbspvZFElEe2Ps4AHdsuIULL03v267tMz8DJiIiIiJSrsozkWo/82Xd7anGML3YVgTs2KT3b25Zyzdu/0cWVrfwr7d+rGj9Wlzbyu8suYR4KsEPX3qUw/0ngOKNSMGZRCoVsQCwrRix0/djJwcmpvWtem3xn40COHZ4kGTSom1RNRUVZ6YRrhif2jdLCfQf7XqUUGyEzS1rWb1gKRsvTk8PfOG5k1jW9OXsRURERETKVZklUmOFJs4akYIz0/usxNTqcBuaV/HIu77KhuZVRe3b712YLjrxH7u2TUztW1rXXrR4NctacPtMvFVxMExMTyt2Kkz01HdJRrrxBAMsu/HiosU/2/hCvCtW10/6+YoFiwA40teBZVvTbn/vf6cXSb5j46sAaG4N0tJWRTgU58jB7Cr+iYiIiIiUk/JKpDqnTu2DMwUn7NRgyfs07urFF7Okto2u4R56RvrwGG7aq5tm3zBHdctaaFjtwzBtTE8jvgVvwOVfDkaMLX/Tysa3b8Tl8xQt/tkO7ksXmli5pmHSzyu9FbRUNxJLxukYzDxNb/fJgzx7/AWqfJXcuvraiZ9vuiQ9KvX8s11F6rWIiIiISPGUVyJ1zhpS47znFJyYGwYXmpdN/J93tBrTKN7hq17cRNOGQDqyqw0MN0bFTXQ8FcXtN1lxfT+p6OGixT/bof1jI1Jr6qe8tqoxPb1vuuekxkejblu7BZ/7zLTAzWOJ1AvbVQZdREREROafskqkzl1Datx4wQkr0V/yPgF0nRjmzz/wCDu/bmCk0ocskKosakzT46Z5cxUA0aEKAI79YidPfbaLjt8CWCQGthHq21HUfqRSFkcODmAYU6f2wdmV+6YmUpFElPufexBIF5k426ax56Re2nWKZHL6aYEiIiIiIuWobBKpTGtIjZurqX2plMX3vvUi73/nA7z4/CkaqqtZWJEu3R1OjRQ3AbBT1C5xY1sweDQd58B/Pgk2GJ4r8VRdgW1b9B79HkM9TxStGyeODpOIp2hpq6Kicup6VeNrSR3KUHDiR7seZTga5rLFm1i9YOmk12rrAyxeVks0kmT/7tNF6buIiIiISLGUTSKVaQ2pcRPFJko4te/A3j4+/Pvb+OaXd5CIp3jl1pV84duv5Q+3vInq0Uaq963k4FgRhmJIxbsxXDZDx+P0HzjNwKEuel88OlFkwl11JZ6a6wDoO/EAA12PFqUf4/t47vNR48ZHpA5kWEtqfFrfO694fcZtx0eltJ6UiIiIiMw3ZZNIHdp5nGdYitk0tYCD6QpgmAGwE9jWSFH7EY0k+Ow/Ps5H/+BBjhwcoLW9ik/920186M+uIljl5ba11/M293sJHlvCSzuL93yPFe8EoHd3hMGjJydKni9/1aUTRSbclRfSuPQODMNkoPsxTp/4T6Cw5cQP7kuPFq1cmzmRWjnNM1LjRSZqAlW8YdPNGbe98DKtJyUiIiIi81PZJFL3fmMnx2jgnhcCfOl//5rIaGLS64a7Fijuc1LPPHmMN7/663z7a88A8Ia3XsDnvvkaNl/SOul96zelk73du3qK1hd7IpGKMnCoi8OPPAvA6tdMXjuqquFimpa/DcN0M9zzJD1H7seeoRS5U4f2po/3imlGpJbUt+M2XXQMniSWjE/8fHw06k0XvRq/x5dx2w0XtmCaBntf7CUWTRaszyIiIiIixVY2idTNmwIsYoBkCr72uSd54yu/yoM/egl7bIDFcNUBxancNzwU5ZMfe5C7334fnScGWb2+iX/9yq286+5L8PpcU94/nkjt2dU70b/CskjFuwGD0/vihLpOEw9HaLxgKXUr2qa8u7J2PS0r343p8hHuf45Th76JbSWmNuu0FymbI4fS6zxlKjQB4DZdLKlv57q2BXTs/ixDPU8wNHSQR3anpxq+8/I3TNt+ZdDDkhV1JJMWv32qM+/+ioiIiIiUinuuOzDuolsu5o+rPESb2vnW9w/x0s5u/vqjP+W+b27no391I3VVdaQihS848fMH9/LpT/yc/tMjeH1u7vrA1bzjvZfT0zP9tL3m1iANCyroOz1K5/EhFi6pKWifrPgpsJOYngZ81cPEhtJl4Ve99qpptwlULad19V2cPHAPo0N76T7wdVpW/g9MV+bRoGx0HB8iFk3S3BYkWDW10ESazZ2rl7G11YWR6KfvxAMA/OjmS4ikbGoGHqYn0kAy4QdXDaanDsNVk56qCSTiKQA+/5mnWbN+AY3Nxa2GKCIiIiJSCGWTSC28bB0LL1sHwI13Xs1DP36Jz33mv9i9q5t33/Ft3nVXHa++qTAjUsmkxS8f3c/nP/MrThxLj7hcfMUi/vLvb2HxsswjL+dav7mJXz92lN27eoqQSHUAYHoXUtk0xPCJXlx+L8tuvHjG7XwVC2lb8z66D3yNaPgIJ178Z5pXvRt/xcKc+nFobCHeFaszT+tLRE/Te+wHvK49/czWiOWjqX4Fuzt20eCDoMdNbLSD2GjHlG0N04fhquWTn3QxPBjmO9+O8yfve4hPffamgh9PEREREZFCK5upfWczDLj19Rfwg5/fxXvefxU+v5tHH0oXPRjq6yYacf48zanuYX543/N89H0/5IaL/42Pv/8nnDg2gNfr4s///lV8+TtvzTqJguI+J5WKjSdS7cRHIgDULmuZKDIxE4+/kbY1/xPT5SOVHKV7z+fpPfp9EjHnz5ZNV7HPti0GTz5Ox57PEg0fIY6Hjz21i68cc9FXeRVvfOiXvPaR7bSs/xhta++maemb8FRdgSuwGtPTjGH6sK0YVuIUwUAXba0JPvxHEZYtGeJjdz/Mgb3Fq4YoIiIiIlIIGUekDMOY9P/2OQ8Cnf36ua8VUqDCw/s+/Du8/i2b+Ze/ewjLeo6KQIS7f+/HvP29F7PlVcs5p6sTkkmL3bt6+N4L+3jivw5zaH/vpNeXLG/A5YIPffwGrt6y3HHfipVI2baFHU+XAze97ay9/Tr2/uBXrLv92qzbcHtraVl9Fz2H/h+pxCChvmcJ9+8gWH8xta034PFllzAe2p9OaM5+Pio22kHv0R8Qj6T7WLXgUvYn2nis4yGudB+fVGSiIlAH1EHlYkLxyQU7bCuCnRrCjp0kMfo8bob40z8N87OfJfjEHz/Cxz51Axsvasl6n0VERERESmnaqX1nJ0iGYUz8/9n/nen/i6G5tZqP/NW1hE7sx+0awe0K878+9Rse+MFe3vuhy1i7oRGA0z0jPPt0J9uf6mTn9pOTKv9VVHq54uqlXHXdcq7espymlqq8+rR0eR2BCg/dnSEG+iLUNQTyam+cnejBthMY7joMVwUrbrmMFbdc5rgdf8VCFm/8UxKxfga7f0G4f8ekhMpybcB0Tz+FzrJsDh8YKzSxph7sJInQU3R2Pw+2hcfXwIIlbyBQtYLkcDqZPNh7lN0nDwIzF5kAMMyxkvaeFlzBzSTDz5MYfoKbb46xfn0fX/j3R3jL79/A6+5onbEdEREREZG5kDGRKnZilCtvRQNWbIS7P7yGz366kwN7TvMn73uIRUtqsWybzuNDk96/ZHkd171yNVdvWc7mSxbidhduJqPpMlhzwQKe/203e17o4aotSwrSbmqs7LnL216Q9jy+ehqX3k5t6w2TEirD2IHpX4u76vKMCVV3R4jIaIIFTZVUVfQS630MKzkEhklN87XUt92EYaanGrZWN1HhDXB6JP382mWLN7G+ZaWDXhq4gxfh8i8i3v8QCxf284m/HeK++x7B4w6w9fUbC3EoREREREQKxrCzyJoKOSK1bdu2HLqZ1lx9iPqKLnpCy+nub+U3P+/l14+exrLS8b0+kxVrgqxaX8Wq9UGqa2d/pigfv3y4h8cf7OEVWxq45Q2FGTlZVPcSQV8/nYNrGI5OXZw4Xx5XlAWVx6mt6CG9eK/B4GgTp0cWk0j5J973wvZBHv7BCT7wwSQXXRgGIJoM0j20imgiOKXdv3zuixwLpxfWvWv167i2+aKc+mcaFk1VR6ir6AJg5y43e44sZ/MVzTm1JyIiIiJSSFu3bgWySKRmS5ycJlK5TgXs7u4mObKTxNAvcVduxFNzAwC/ffIE937xOe589yau/J3FU0adWltzS3C6u7tnfc/O7d385YceZdW6Bfyvr95agHg20ZNfxrZi+Fveg2HOXgo813idJ/aSDD2DFd2LbVsYhjlphOrnP36EDWv2UVNjg+FKF4uovIS2tswjZbd//QP8Yv9TVHj9HPyrx6YswpvN8TybFTtC+OTDeDxxQiGTQycu4Q1vf2PW2zuNN66Y54viKZ7iKZ7iKZ7iKZ7ilS5esc1Y/rwUzz85Ybprgckl0C+7ahGXXbVoTvqzZn0jLpfJ4f39RCNJ/IH8qslbiV5sK4bprs0qicqH6a7BW3cTVvLyiYQqFdlNKroXw6zk6stDAIzEGmlYdCvG2LGfzsBoelrl2ublU5KonPrnW0bVwndw+tg2qqq6uXD9b3n0h93c+No/wHQVd6RRCseybELDUYYGowwPRhgajDA0GGX3zpMc2HeKVWubWb+phZpaPzW1AaprA9TU+rEsG9OcppJMDvFe2tXNwb09tC2spbW9esp24XA4Y3s9J8Oc6g7T3BKkqXXqSGwweCjjdt0dw3R1Dp6/+9c5RFfHkOIpnuIpnq6f5X485028EU52hVi3sYnLr1lIa3sVNbX+jO8tJ9OOSE2XRM3liJSdGiZ66h4MsxJ/y3uy2q7YGfNH3rONA3v7+NS/3cTmS1rzipcMP0di+Fe4Ktbjrb0pq+0KtX9Wcohk6BlSkT2ATTJp8PWvV/COD7yVuoaKWePdt+OnfO2p+7nrFW/hzRffOmu8bLW2trDj1z8m6HkGt8dmcCjA+iveg79y5mfIMsUb6Ivw6LaD7Hi6k/bF1SxompqsBoNTLxaQx4Whe4RTJ0MsXVHPqnUNVFV7qar2UVXjp6ray8pVS3L6g9DZ2cVIOE5oOE5oKEpoOEZoOM6BPac5emhghgtfcfYvWO3D63URHo4zPBwjPBwjNBxjJBwnl3sxhgGVwfSxClb7qK72Eaz2Eo+lCIdiBY+XK9OEigqbqiqLYBCCwfR/r1iRYMlim2PHDQ4d8hAKmYTDBuEwhEImkYhBoKL8909EpNzMl78Pkr/KoJe2hVW0tFexZl0bi5bWpf9ZUkddfcXsDZRAxkRqpmRnLhMpsIl0fR5IEWi9G4zZRyaKnUh97d9/y0/u38Nbf38zd75rc17x4v0PkIoexlN7M+6KdVltV+j9s+LdRE4/zF//hc3pgSq+8eM7ihpvNuPxnn/mOcInv09be4pUyqS+/RYa2n8HyJyEHD1ynCMHTnHscDcnT/Rx+lQfVirCihVJliy26Ok16O11Zd2PxkaLpsbCb2cAXp8bnz/9j9/vwed3U+GPUBGIMBoJMBoNEIsmiUYTxKJJYtEk8ViSTJ+iYvUz5/0zwOt14/eP76MHv99N4Kz9i0QDRKNJYmP7F40miceTGf/g5RsvnqzEcE0dXY3HYxn3z7TD+LwRLLy4vV587gQebwKvJ4nHk8DrSUHG38TMbNtgZARGRsyx5MogHDbxeiFYaZds/ww7jN8bIRYPYBlTk2yvN/Posp0awusOK57ilWU8kkN4PGFGItWkjGYSCS+JpJdE0kMi4WFgMJbx+pK+MRSmuTVIU8vUG23V1UHcrgQeTwKPO4HHHcfjiePiFJX+4ZyvL6GRSqLJBuKJdP/iCRfxuAd/oA7bnvo3bnzEpq29htaFU4tFhUKhjPFm27+qqszVjIsVb7bjOTgcZGComv4+m76+JD09SU52xentSZBMOr/umqZBsMo3Nrrlp6YmQE2dn1gkxdBQhLaF8/t4zvd4vWMjUi6XyehInK6OECPheMb3AgSrfCxeWsfCJXUsXlrHFdcs46LLFk77/mKZdi7adGtJ2bZdsnWkMvQK01OLlejDTg5ieBpLGDuz9Zua+Mn9e9jzQu/sb56RTSqeLrDg8hWmYl8uTG8rO/Zcz/4Dv+Lyqxtm36BELrz8Ina/0Mgvf3YPW7aMMHTyQcJ9T1NRsxwrlWQkNEhkNEQqMYrLjOP3WyxpsFnSAGSoHr8+x36UejvIPBJUrHjn+/6l453KYbuRaX5uYLoCuNwVmO4KXK4AprsSrDipZASXOwCmFys5QioVwUqOkkqOYqWiBIM2wWCK5gx1VOZm/04rnuKdh/G6MvzcAMOL6QqA6cMw/GD6wU6CFQMzAcYwWFFsOwpWDCsVATvOzDdO8tm/TGtSGpgu/9j1JYDLlb7OWFYSOzmK2+fG7fVO7UU4mjGKlRqBZAjDZWC4p96oCQYzfyVMxMOkYiHH8ezkCHYqlPPxXEQYOJnhFQPwYuEjmXKTiHuIxjyMjESwkxGSVhB/ZR1enwuv15W+6eRzU1dfk3Ht0UR8IKf9y/V4JmNhkvEQnopK/JUVmK6Kid+x6aqgp3eQ6W4Sz6S1tYVUMoKVGsVKRsb+1owSC/cRjxQjXvFvrA8PxejqGKb7RIjhQYsTxwY5cbSf40cHCIdi7H7hJLtfOHOOlE0iNVtyNJfPTRmuWkj0YaUGcZVBIrVuY7qy3t4Xe7FSuR8XO9kHVhTDVYXhmjq1qpQO7e8HYMXq8kmkANZvXEhFxd188dP38j/eeRof/YRO90+8HvACY9dAy4Jo1CSZ9ILLj89fQaCyGuwEth2b9jhPd4clGRsgER/A463D7aub8vp0d1js5DC2NYzhqs4YLxgMEo+lJo02RaNJRod6wBjGpobK6sazRiDSo1axeCTjH4TZ4pV6/86LeKkQpqcB09sChh/D9GO4AhiGj9b2peTyB6i7uwusGLYdw05FsK0o2FGs+EmsZF/ZnJ+Kp3jzNV4yPoDLNf2NDOwYVjLzSNH0pr9xkkxFcr6+GKYvPcPGipxzTYhjpSLppCNTV3O7DzWtgczdLFq8fG5EQQyTGF4XeANQGYCGicHAUaYkpnEYzJSTFXH/ZjuekfBhhjO+Mlui7wfDNSUxPdw1c2LqNJ5tJzGsWPrz5576+RuwMz8qkE5MB3D76nB7p34ektM8KmClhiE5PClehQkrF6f/ST+aEADagXai0SRDgxGGB6MMDUZoWTQ1CS6F/KojzIHxogdWoh9XGTyDVtcQoLW9iu7OEEcPD9C+sC2ndqxYev0o01f6bPpcB/f1AbByTXklUgBLVzTw4b+5i3/5qy9w220hnnjCQ2+viccXpKW9mcXL2li1bhG1jT4qfc5P77oc77BEyW3qYn2Jp0qWev/O93i5JFET25l+DPwYrjNTH1yBtTNudb4fT8VTvFLEm+lGhp3owyjwjZNc96+1tSU9sjApiRglFj5BLHpyfiTCuhGVMV6pE/1ZE9Mc4pU68c4UzwssqEn/U9e2uLABszTvEinTXQ9Mrtw319ZvaqK7M8TuXT1cfe0FObVR6IV483FofzqRWrGmfo57kllLWzWve9sd/Ns/Pc67/ucruPKapdQvmDx/N9dEQ0REzne53cjI/cZJrgzMsS/F+M7c2AzWz7xO43xJhHUjKrNSJ/rzPTEdFwgun/H1Ypl3idT4iJSdKq9E6rGHDrF7Z6Y5ztkplxGpU91hwsNxauv8NDSWR0WUTK65fgXXXL9irrshIiIiUkClTvTP78S02MzZ31JezkztG5jjnpwx/pzU7l25JVKJaA+2NQpm5aSTeC5sfzqd0C1cMrf9EBEREREpZ/NvRMqsAMMHdgzbimCYgbnuEguX1FBV7aPv9OjYWjzOkpBI6Agwt9X6TnaF+O69u/jFw4cBCI9MX3JSREREROTlbt4lUgCmpy49VzQ5iOGd+0TKMGDdpkae+U0Hzz/b4TiRiobTyYvpLf20vvEE6vFHjpBKWbhMg6Wr6njLOzeVvC8iIiIiIvPFvEyk0gvencRODQDlMWfygk3NPPObDnZu7+TW1zkrOHFmRKp0idSUBMpl8sqtK3nzOzfS0jbzA30iIiIiIi938zOROrsE+twPSAHpghMAzz/b4Wi7ROw0qcQwhlmB4Z5a3aTQOk8M8n8/9yTbfvSSEigRERERkRzNy0TK9JRfCfSVaxvweF0cPtDL8FCU6prsFrmKjo1GmUV+PkoJlIiIiIhI4czLRCo9ta+8SqC73Sar1zXw0s4eXniuk6u3ZFeaOxIem9ZXpPWjMiVQr7ljE7fdsUIJlIiIiIhIjuZnIjUxtW8QsCn9InmZrdvYxEs7e3j+2Y6sE6loKF1owihwIrVrRyd/88c/patzeFIC9ft/+AraF9VqwVoRERERkTzMz0TK8IBZCdYIdiqUcQXkueD0OalkfIBkfDC9crmnYfYNHPiLDz9Ad8cQhmFMSqBERERERCR/8zKRAnB56knFRtIl0MskkVq3sQnDgJd2nSSRSOHxuGZ8f2RsNCoQXIZVwFG1J391mO6OIdxuk6/c91Y2XTR361OJiIiIiJyPzLnuQK7Gp/fZyYE57skZwSovy1c1Eo8l2fPiyVnfP15owl+1rGB9iMdTfOZvfw7A+//kOiVRIiIiIiJFMH8TqbGCE1YZJVIAmy9JJy7ZTO8bX4jXH1xesPj3fulpThwbYMXqRu5816UFa1dERERERM6Yv4mUuzwTqQsvTS+qO1silYwPkYj1Y7r8+CoKs6hwx/FB7v3S0xgGfPyTN+Nyzdtfr4iIiIhIWZu337RNd/mtJQVnEqmdz3Zi29O/78xo1FIKVXXw03/zKPFYkq2v38BFly0sSJsiIiIiIjLVvE2kcFVjGCZ2KgSk5ro3E9oW1tDUXMXQYIRjh/umfd+Z56MKM63vFw/v48lfHaa6xs+H/uz6grQpIiIiIiKZzdtEyjBMMKsBe2w9KWdio50cf+GfiY12Fbxvmy+d/Tmp8YV4A8H8C01ERhP8y989BsAffvRa6uor8m5TRERERESmN28TKQDTUweAnco+kbKtOANdj9K153Mk4wOcPHgP2FZB+zXbc1KpRIhEtBfT9OKtyL+q3lf//Ql6ToZYv6mV17/lwrzbExERERGRmc3bdaQADHcdcCTL56RsQn3P0d/5MKnEcHp700MqEaKv82EaFt5asH7NlkhFx0ajfMGl6ZG1PBw+cJrvfP23mKbBn/3dzZhm4dajEhERERGRzOZ3IjVRAr1/xvdFw8fo63iA2Eg6sfFVLqJh0W1g23Tv/wpDp36Fv3IxlXUbCtKvVWuaqKj00nF8kL7eERoaKye9Hhl7PipQgPWj/umvf0YqZXHH2y5i3YaWvNsTEREREZHZzeupfWcW5c08ImWnQvQc+Q+69n2R2EgHbk81TUvfRPvau/FXLsYfXEL92EhU77HvkYj2FqRfpstg40VtAOzcPnVUqlDrR/3i4UPseOYE9QsqufuPr8urLRERERERyd68TqRMz3gJ9HPWkrITJENPE+35JuH+nRimh7rWG1m04aMEGy7m7HLjNU1XE6zfjJWKcerQt7CteEH6Nt30vlRyhHikB7vmo2oAAAzESURBVMP04KvMvUT5SDjBPZ/fDsAfffx6qqp9uXdWREREREQcmd9T+8xKMDzYVgTsGBhekqN7SQw/AdYIAMH6zdS334rbWzNtO41L3kh8tJt4tIfeYz+gadmdefdtIpHa3jnp5+nno2z8lYsxDFfO7X/rKzsYHIhy8RWLuPX1F+TTVRERERERcWheJ1KQnt5nJ3pJjh4gFXkRK34KANPbgqfmOpoWXzR7G6aX5hVvp3Pv5wj378RXuRjIb9rdhs1tuFwm+146RWQ0QaDCAxRm/agDe/t46Mf7cbtNPv7Jm/Pqp4iIiIiIODevp/YBmK4qABJDj2HFT2GYlXhrb8a34E2YnuyLL3j8jTQuuQOA/o4HseLdefUrUOFhzfomUimLF3eeWasq3/WjLMvmi//yNJZl85o3rWP5ygV59VNERERERJyb94mUlUqXMscw8VRdgb/5nbgq1nH2c1DZqqzbQE3ztdh2ilj/NuzUaF59O/c5KSsVIT7ajWG4x0a9nHv4J/s5sLePBU2V3PmuzXn1T0REREREcjPvEylP1eWYngV4627FXXUlGJ682qtvvyU97c4aIT74UF6L9Y4nUjvHnpOKho8CNr7KRRim81mVgwNRvvnlHQDc9aHL8Afm/cxMEREREZF5ad4nUi7/KnyNv4fLv6Ig7RmGSfOyt4JZiRXrIBF6Mue2Nl+STqR27ejEStlEQumy54Ecn4+69wvbGQknuOTKdq66LrcRLRERERERyd+8T6SKweUJ4qvfimG4SIa3k4oczKmdhsZKFi6uZXQkzoF9PWcVmnD+fNRLO3t47KFDeLwu/uDDl+fUHxERERERKQwlUtMwva24q68BIDH06NS1qrI0Pr1v146jxCJdGIYLf+USR22kUhZf/Nf/BuCOt2+gtb0qp76IiIiIiEhhKJGagbvyQlyB1dhWnHj/T8FOOG7jwksX4nLZpEZ3gG3h8TdimM6e4/rJd/dw7PAAre1V3P62jY77ICIiIiIihaVqBbPw1r6SWOI0VrKf+ODP8da9OqvtkvEhRof3sXndC9xzzxB+/yAApsMkateOk3zry88B8L6PXIHHo9xXRERERGSuKZGajeHBW/+7xE7fRyqyn6S3FXflhVPeZtsprHgX/R3PMTq8j3jk1MRrfj/09Bi0tLdSveCKWUNals2zT3Xyn9/bw85n0+tZtbRXcfEVbYXbLxERERERyZkSqSwY7jo8NTcRH9hGcvg3mJ5mTG8rdipMKnYUK3oUK34iPQVwbBvT5SNQtZKKmjV85h8O8eBPjvPJf72RWzddMG2ckXCCR396gG0/3MfJrhAAfr+bhsYK/vBPryzBnoqIiIiISDaUSGXJFViJO3EJyfB2Yn0/wnQFsc4pQGF6Gqhu2ECgeg3+4BIMwwXAyrU2/OQ4O7d3cuvrpiZShw+e5t4v/Te/ePgQ0UgSgJa2Kn73jWt45daVVAa9xd9BERERERHJmhIpB9xVV5GK7MNOhbGSAximF9O7CJd/KaZvKYYrSH1r65Ttxiv3Pf9sx8TPLMvmN48f4r5vbOeZJ46eee9lrdx2+zoufUU7pmkUfZ9ERERERMQ5JVIOGIaJp+aVJIf/C3fV1Zj+pROjTjNZt7EFr8/N4QO9dHUM8/gj+7j/WzvoPJEuQBGo8HD9q5bzu29cy6KlNcXeDRERERERyZMSKYdc/iW4/O9wtI3H42LFqgXsefEkt9/8FeKxFADti2p58zsu5jV3bCIU7i9Gd0VEREREpAiUSJWIbdsAxGMprrhmKW9+xyVcc/2Kiel7ofBc9k5ERERERJxQIlUib7vrcr791Wd4+11X8Krb1s11d0REREREJA8zJlKGYUyMpJz783GZXpepbrltPbfctn6uuyEiIiIiIgUwbSJ1drJ07s/PTp6mS7ZERERERETOV2amHyo5EhERERERmZ5hz5AxZUqo8h2R2rZtWw7dFBERERERmXtbt24F5iCRynW0q7u72/E2AK0ZFshVPMVTPMVTPMVTPMVTPMVTvPM7XrFlnNonIiIiIiIi01MiJSIiIiIi4pASKREREREREYccL8hr27bWkRIRERERkZe1GROp6ZIkJU8iIiIiIvJypql9IiIiIiIiDimREhERERERcUiJlIiIiIiIiENKpERERERERBxSIiUiIiIiIuKQEikRERERERGHlEiJiIiIiIg4pERKRERERETEISVSIiIiIiIiDimREhERERERcUiJlIiIiIiIiENKpERERERERBxSIiUiIiIiIuKQEikRERERERGHlEiJiIiIiIg4pERKRERERETEISVSIiIiIiIiDimREhERERERcUiJlIiIiIiIiENKpERERERERBxSIiUiIiIiIuKQEikRERERERGHlEiJiIiIiIg4pERKRERERETEISVSIiIiIiIiDimREhERERERcUiJlIiIiIiIiENKpERERERERBxSIiUiIiIiIuKQEikRERERERGHlEiJiIiIiIg4pERKRERERETEISVSIiIiIiIiDimREhERERERcUiJlIiIiIiIiENKpERERERERBxSIiUiIiIiIuKQEikRERERERGHlEiJiIiIiIg4pERKRERERETEISVSIiIiIiIiDimREhERERERccg93QuGYUz8t23bJemMiIiIiIjIfJAxkTIMY1LydO7/i4iIiIiIvJxpap+IiIiIiIhDhp1hqKmYI1Lbtm0rSDsiIiIiIiKltnXrVmAOEikREREREZH5TlP7REREREREHFIiJSIiIiIi4pASKREREREREYcylj+3bVvrSImIiIiIiExj2gV55yJ5clrU4uxkD7Lvc67bndtGrvGcxnSa1OYTL9cEOt/EO9PxzGU/pvu9FKJ/M/Uj2/azPfcKUeAlU9GYc2V7PuW6v9m0namdfM756X7/hfi9n92+k+M523sLcTxnasNJ+9m8t5gFiGZqu1Cf71xiZPt6LrELdX3JJ8ZM2zqRy7W8GPs3XVvaP+exz41fjPMz23YKdS13cuwK+fe9WNeXmWKX4vtLKb/blJtpE6lSy3SRyEau1QXzqUqYS1/z+WA43TabC/B08XI5LvlWeZypf4Vop1BVKKdrw2n7s703189CNm043e9M7RTieM50bjtpP5vPSD7HM9cvo07aKdTxLMT5mc17C3F+Tmemtgv1+c4lRravzybba10+15dcYmSzbTZyuZYXa/+cbpuNbK+r+Xy+c4kx27bZyuUzVqj9K8W1Z6b2C3V9ySVGtq/PZqbYpfj+Mpd/O+ZSWTwjVYgvtqXYbi7k29dyP3ELdXei2Hc5CtX2fDr3im2+HdNCfZbK/TM5V5wkeOUcI5fYhYpbihi5xJ5PMfKNnc/nuxQx8o1d7jGmU4xRoLmIkUvsUvytfTl/tymLRGoufwFOL0j5DLuO/1OK7c6Wy6hOqS542dxBzGb/S3kOFfMLdSGO+2xfFrM9n0rxxTLfc3u2dgq9D5nusOWyD/P1j04xz4ly/yKQ775nu20prvXF+KwU6lperBil+v05fW+hYpRy/+Yixlxde0oVo1TfuUpxI68Uf4vLSdlM7cuX01/S2b9oJ398CjFy5qSdfKf8OGHbdkG+2BZKof9Q5CuXc8ZJO8VOopwcz1Ic60Lte7ZTFgqt3M7PYjvf928mpbpbP65YsYp57ZlJKT4rM8U4389d7d/ctpdvjFLsX6GvL05inO/n53mRSOXyS3o5/JJzSS5zOS7jCVipOL0gFKp/To/NdP0st3Nvro6nU6X4ojlT7Fzu9mfzBbIQxzOXNjL1c65+t8Uwl+dLLgp1fSlkjLk0335/ULjrRKFiFEqhri+FjpGLQh0/p9f5UpkudiGvL4WKcb6Y94lUqYdDzz65xv/75XKyzOTcD1CpYuWyTam+KOYyQprP+ZVrG9PdVZqpnZfD8czVXJ2fTtvIZuTy3OM4n65/hepXue679i872r/CKNT1xWmMQu5fIb8vFmo2h/Zv/pvXiVQpM9587jjMRWY+V3cDChm3GPtQrndJCnFHa7Y2nIwwZtuX8/l4zrZtviO+ub6nEHGctlNOd1xL7Xzf91Ls31xOpSrV72+u9rHU52ep97NQ+zeX5+BMtH/z37xOpGDqnZFsfkG5bJOvXKdhlHp6Qy7xitnHQrRd6DbObcfJ72kuzr3p4s/l8ZzpmDk5nnPxGTlbuRzPmdrI9fycL3/s5vocKIRCXV9yjVEKhfi85xpjLp1v52c+15dcYxRKLp8Bp/s3l5+z6WIX8vqSS4zznWG/nPZWRERERESkAMqi/LmIiIiIiMh8okRKRERERETEISVSIiIiIiIiDimREhERERERcUiJlIiIiIiIiENKpERERERERBz6/5l+A2SHy+JGAAAAAElFTkSuQmCC;" vertex="1" parent="1">
          <mxGeometry x="-460" y="600.95" width="794.18" height="526.95" as="geometry" />
        </mxCell>
        <mxCell id="Zaewg4Ofl3aSR8xDvAoy-6" value="&lt;div align=&quot;left&quot;&gt;&lt;b&gt;&lt;font style=&quot;font-size: 26px;&quot;&gt;А) &lt;span id=&quot;docs-internal-guid-4d2bb70a-7fff-555e-2f2d-5970c1b38434&quot; style=&quot;font-family: &amp;quot;Times New Roman&amp;quot;, serif; color: rgb(0, 0, 0); background-color: transparent; font-style: normal; font-variant: normal; text-decoration: none; vertical-align: baseline; white-space: pre-wrap;&quot;&gt;Распределение &lt;/span&gt;&lt;span style=&quot;font-family: &amp;quot;Times New Roman&amp;quot;, serif; color: rgb(0, 0, 0); background-color: transparent; font-style: italic; font-variant: normal; text-decoration: none; vertical-align: baseline; white-space: pre-wrap;&quot;&gt;Phred&lt;/span&gt;&lt;span style=&quot;font-family: &amp;quot;Times New Roman&amp;quot;, serif; color: rgb(0, 0, 0); background-color: transparent; font-style: normal; font-variant: normal; text-decoration: none; vertical-align: baseline; white-space: pre-wrap;&quot;&gt;-оценки качества прочтения нуклеотидов&lt;/span&gt;&lt;/font&gt;&lt;/b&gt;&lt;/div&gt;" style="text;html=1;align=left;verticalAlign=middle;whiteSpace=wrap;rounded=0;" vertex="1" parent="1">
          <mxGeometry x="-480" y="8.95" width="850" height="30" as="geometry" />
        </mxCell>
        <mxCell id="Zaewg4Ofl3aSR8xDvAoy-8" value="&lt;div align=&quot;left&quot;&gt;&lt;b&gt;&lt;font style=&quot;font-size: 26px;&quot;&gt;Б) &lt;span id=&quot;docs-internal-guid-4d2bb70a-7fff-555e-2f2d-5970c1b38434&quot; style=&quot;font-family: &amp;quot;Times New Roman&amp;quot;, serif; color: rgb(0, 0, 0); background-color: transparent; font-style: normal; font-variant: normal; text-decoration: none; vertical-align: baseline; white-space: pre-wrap;&quot;&gt;Доля нуклеотидов, приходящихся на каждую позицию рида&lt;/span&gt;&lt;/font&gt;&lt;/b&gt;&lt;/div&gt;" style="text;html=1;align=left;verticalAlign=middle;whiteSpace=wrap;rounded=0;" vertex="1" parent="1">
          <mxGeometry x="-480" y="571.95" width="850" height="30" as="geometry" />
        </mxCell>
      </root>
    </mxGraphModel>
  </diagram>
</mxfile>
